<?xml version="1.0" standalone="no"?>
<!DOCTYPE svg PUBLIC "-//W3C//DTD SVG 20010904//EN"
 "http://www.w3.org/TR/2001/REC-SVG-20010904/DTD/svg10.dtd">
<svg version="1.0" xmlns="http://www.w3.org/2000/svg"
 width="700.000000pt" height="700.000000pt" viewBox="0 0 700.000000 700.000000"
 preserveAspectRatio="xMidYMid meet">
<metadata>
Created by potrace 1.11, written by Peter Selinger 2001-2013
</metadata>
<g transform="translate(0.000000,700.000000) scale(0.100000,-0.100000)"
fill="#000000" stroke="none">
<path d="M395 6984 c-220 -54 -382 -251 -391 -474 -8 -215 100 -402 286 -494
l75 -37 0 -2481 -1 -2482 -29 -10 c-108 -40 -222 -141 -274 -244 -83 -165 -78
-353 14 -507 47 -77 86 -118 159 -166 86 -57 157 -80 256 -85 214 -9 400 99
494 287 l37 74 2476 0 c1361 0 2478 -2 2481 -5 4 -3 23 -36 42 -75 157 -319
605 -380 843 -115 230 256 156 659 -150 811 -37 19 -70 37 -73 41 -6 8 -6
4956 0 4960 3 2 37 19 75 38 251 125 355 437 229 689 -88 177 -248 280 -444
286 -113 4 -177 -11 -270 -61 -100 -55 -182 -144 -225 -244 -10 -25 -20 -47
-22 -50 -5 -6 -4953 -6 -4961 0 -4 3 -21 34 -38 71 -58 120 -170 217 -303 262
-74 25 -208 31 -286 11z m4600 -666 c3 -3 -13 -13 -35 -22 -236 -94 -650 -332
-885 -509 -179 -135 -429 -371 -655 -618 -57 -62 -108 -117 -112 -120 -5 -3
-34 3 -66 14 -74 25 -504 134 -562 142 -24 4 -47 8 -50 10 -8 5 -232 43 -295
50 -27 3 -61 8 -75 10 -14 3 -74 8 -135 12 -358 22 -603 -12 -822 -112 -118
-55 -172 -92 -259 -179 -302 -303 -359 -784 -131 -1116 132 -192 337 -331 567
-384 95 -23 257 -16 335 14 124 47 210 123 266 232 50 99 73 243 54 343 -11
58 -57 153 -98 205 -20 24 -35 45 -34 46 1 2 38 -6 82 -17 44 -11 89 -22 100
-24 11 -3 67 -18 125 -33 58 -16 152 -42 210 -58 58 -15 106 -29 108 -30 2 -1
-70 -123 -160 -270 -164 -269 -488 -807 -520 -863 -10 -17 -128 -216 -264
-443 -136 -227 -294 -492 -352 -588 -123 -206 -164 -266 -204 -299 -44 -35
-104 -53 -152 -45 -49 8 -61 14 -146 69 -36 24 -84 49 -107 56 -24 6 -43 15
-44 18 -4 23 -3 4164 1 4169 3 4 37 23 75 42 95 47 181 133 229 230 l37 75
1984 0 c1091 -1 1987 -3 1990 -7z m1027 -80 c18 -35 59 -90 90 -123 32 -32 58
-60 58 -61 0 -1 -34 -55 -75 -121 -96 -152 -118 -190 -256 -434 -122 -215
-143 -253 -248 -460 -101 -197 -185 -376 -268 -569 -68 -156 -64 -222 18 -282
13 -10 49 -23 79 -29 86 -16 305 -19 390 -4 41 7 92 16 112 19 21 3 41 6 45 7
31 5 31 -5 2 -47 -107 -156 -215 -195 -552 -198 -226 -2 -232 -4 -279 -67 -26
-34 -127 -397 -167 -599 -6 -30 -14 -66 -16 -80 -16 -80 -56 -311 -60 -352 -3
-26 -8 -72 -11 -100 -7 -64 -6 -234 1 -303 17 -152 71 -282 149 -360 73 -72
133 -99 231 -103 190 -9 371 110 539 353 66 95 108 138 118 122 14 -21 6 -186
-13 -272 -64 -293 -275 -642 -492 -813 -125 -99 -286 -171 -422 -189 -91 -12
-283 -9 -345 6 -85 20 -209 84 -271 139 -153 138 -260 388 -287 672 -13 144
-6 472 13 565 2 11 6 38 9 60 27 214 146 646 272 980 110 295 112 303 104 340
-10 45 -33 80 -66 102 -14 9 -104 31 -201 49 -96 18 -187 37 -201 42 -63 21
-149 -8 -181 -60 -36 -58 -209 -386 -316 -598 -147 -294 -240 -472 -303 -586
-27 -49 -119 -228 -204 -399 -85 -170 -170 -337 -188 -370 -18 -33 -48 -88
-66 -122 -92 -169 -242 -404 -366 -571 -436 -590 -950 -860 -1305 -687 -165
81 -306 270 -377 505 -27 91 -45 215 -30 209 5 -2 32 -16 61 -31 218 -115 450
-79 628 98 65 65 84 96 435 684 868 1454 1143 1906 1205 1980 19 22 28 75 20
119 -8 50 -60 105 -112 118 -21 6 -164 45 -318 87 -574 158 -755 196 -955 202
-107 2 -150 -1 -205 -15 -181 -47 -297 -160 -337 -328 -17 -72 -29 -67 -22 10
17 192 101 353 237 454 66 49 115 73 212 103 66 21 95 27 230 45 40 6 299 6
350 0 22 -2 67 -7 100 -10 52 -5 254 -36 325 -50 108 -21 159 -33 335 -77 110
-28 257 -68 326 -89 70 -22 141 -39 159 -39 55 0 95 28 183 128 235 269 509
537 692 678 61 46 275 194 282 194 2 0 23 13 46 28 23 16 105 63 182 105 321
175 702 324 1050 411 141 35 174 43 187 45 4 0 22 -27 40 -61z m303 -1247 c0
-385 -3 -697 -6 -695 -4 2 -9 16 -12 31 -9 45 -70 116 -123 143 -44 22 -61 25
-159 24 -60 0 -148 -8 -195 -17 -114 -23 -172 -27 -167 -13 63 155 301 626
432 855 58 101 105 186 105 187 0 2 20 35 45 74 25 39 45 74 45 78 0 9 21 32
30 32 3 0 5 -315 5 -699z m-4563 -867 c40 -30 68 -80 68 -122 0 -98 -49 -176
-125 -199 -44 -14 -136 -11 -193 6 l-44 12 47 30 c59 37 78 81 72 161 -4 61 9
101 41 126 23 18 102 10 134 -14z m4563 -1543 c-1 -858 -3 -1562 -5 -1563 -3
-2 -34 -17 -70 -33 -91 -42 -195 -147 -235 -237 -22 -49 -35 -68 -50 -69 -23
-1 -3838 -1 -3844 0 -2 1 9 11 25 23 62 49 82 67 190 173 226 223 416 478 636
855 111 190 164 292 353 669 86 172 171 336 187 365 17 28 105 197 195 376
215 423 323 632 336 648 8 11 61 9 75 -3 1 -1 -14 -46 -34 -101 -106 -292
-219 -683 -250 -864 -3 -14 -9 -47 -14 -75 -5 -27 -12 -68 -15 -90 -3 -22 -8
-51 -10 -65 -21 -121 -28 -519 -12 -652 58 -481 268 -832 591 -988 75 -36 158
-66 211 -76 11 -2 43 -8 70 -13 49 -10 306 -8 375 2 126 19 217 47 335 102
330 154 576 438 771 891 23 53 72 208 78 248 4 21 8 42 11 46 5 8 18 137 19
195 4 168 -59 334 -151 398 -166 115 -346 40 -533 -224 -104 -145 -212 -239
-277 -239 -59 0 -92 127 -88 340 2 85 7 171 10 190 3 19 13 76 21 125 13 80
35 195 50 265 3 14 7 36 10 50 4 19 39 162 58 235 1 6 9 36 16 69 8 32 18 60
24 61 6 2 72 6 146 9 290 11 464 77 613 230 76 77 167 231 167 279 0 10 3 16
8 14 4 -3 7 -707 7 -1566z"/>
<path d="M5139 5639 c-157 -35 -460 -323 -752 -714 -102 -135 -226 -321 -228
-338 -1 -7 -2 -24 -3 -39 -4 -39 26 -101 60 -125 25 -18 164 -61 253 -78 14
-3 49 -12 76 -19 105 -28 154 0 232 132 31 53 142 225 247 382 294 440 340
523 349 620 6 65 -32 139 -87 167 -34 18 -98 23 -147 12z"/>
</g>
</svg>
