<?xml version="1.0" encoding="utf-8"?>
<!-- Generator: Adobe Illustrator 22.1.0, SVG Export Plug-In . SVG Version: 6.00 Build 0)  -->
<svg version="1.1" id="Layer_1" xmlns="http://www.w3.org/2000/svg" xmlns:xlink="http://www.w3.org/1999/xlink" x="0px" y="0px"
	 width="624px" height="287.7px" viewBox="0 0 624 287.7" style="enable-background:new 0 0 624 287.7;" xml:space="preserve">
<style type="text/css">
	.st0{fill:#5AD2FF;}
	.st1{fill:none;stroke:#00C6FB;stroke-width:4;stroke-linecap:round;stroke-linejoin:round;stroke-miterlimit:10;}
	.st2{fill:#00C6FB;}
	.st3{fill:#333333;}
	.st4{fill:none;stroke:#333333;stroke-width:3;stroke-linecap:round;stroke-linejoin:round;stroke-miterlimit:10;}
	.st5{fill:none;stroke:#00C6FB;stroke-width:3;stroke-linecap:round;stroke-linejoin:round;stroke-miterlimit:10;}
	.st6{fill:none;stroke:#006ED2;stroke-width:4;stroke-linejoin:round;stroke-miterlimit:10;}
	.st7{fill:#006ED2;}
	.st8{clip-path:url(#SVGID_2_);fill:#006ED2;}
	.st9{clip-path:url(#SVGID_4_);fill:#5AD2FF;}
	.st10{fill:none;stroke:#006ED2;stroke-width:4;stroke-linecap:round;stroke-linejoin:round;stroke-miterlimit:10;}
	.st11{fill:none;stroke:#006ED2;stroke-width:6;stroke-linejoin:round;stroke-miterlimit:10;}
	.st12{clip-path:url(#SVGID_6_);}
	.st13{clip-path:url(#SVGID_8_);fill:#006ED2;}
	.st14{fill:none;}
	.st15{clip-path:url(#SVGID_10_);}
	.st16{clip-path:url(#SVGID_12_);enable-background:new    ;}
	.st17{clip-path:url(#SVGID_14_);}
	.st18{clip-path:url(#SVGID_16_);}
	.st19{clip-path:url(#SVGID_18_);fill:#006ED2;}
	.st20{clip-path:url(#SVGID_20_);}
	.st21{clip-path:url(#SVGID_22_);fill:#006ED2;}
	.st22{clip-path:url(#SVGID_24_);}
	.st23{clip-path:url(#SVGID_26_);fill:#006ED2;}
	.st24{clip-path:url(#SVGID_28_);}
	.st25{clip-path:url(#SVGID_30_);fill:#006ED2;}
	.st26{clip-path:url(#SVGID_32_);}
	.st27{clip-path:url(#SVGID_34_);fill:#006ED2;}
	.st28{clip-path:url(#SVGID_36_);}
	.st29{clip-path:url(#SVGID_38_);fill:#006ED2;}
	.st30{clip-path:url(#SVGID_40_);}
	.st31{clip-path:url(#SVGID_42_);fill:#006ED2;}
	.st32{clip-path:url(#SVGID_44_);}
	.st33{clip-path:url(#SVGID_46_);fill:#006ED2;}
	.st34{clip-path:url(#SVGID_48_);}
	.st35{clip-path:url(#SVGID_50_);fill:#006ED2;}
	.st36{clip-path:url(#SVGID_52_);}
	.st37{clip-path:url(#SVGID_54_);fill:#006ED2;}
	.st38{clip-path:url(#SVGID_56_);}
	.st39{clip-path:url(#SVGID_58_);fill:#006ED2;}
	.st40{clip-path:url(#SVGID_60_);}
	.st41{clip-path:url(#SVGID_62_);fill:#006ED2;}
	.st42{clip-path:url(#SVGID_64_);}
	.st43{clip-path:url(#SVGID_66_);fill:#006ED2;}
	.st44{clip-path:url(#SVGID_68_);}
	.st45{clip-path:url(#SVGID_70_);fill:#006ED2;}
	.st46{clip-path:url(#SVGID_72_);}
	.st47{clip-path:url(#SVGID_74_);fill:#006ED2;}
	.st48{clip-path:url(#SVGID_76_);}
	.st49{clip-path:url(#SVGID_78_);fill:#006ED2;}
	.st50{fill:#FFFFFF;stroke:#231F20;stroke-width:2;stroke-miterlimit:10;}
	.st51{fill:none;stroke:#006ED2;stroke-width:2;stroke-linecap:round;stroke-linejoin:round;stroke-miterlimit:10;}
	.st52{fill:none;stroke:#006ED2;stroke-width:2;stroke-linecap:round;stroke-linejoin:round;}
	.st53{fill:none;stroke:#006ED2;stroke-width:2;stroke-linecap:round;stroke-linejoin:round;stroke-dasharray:3.9091,7.8182;}
	.st54{fill:none;stroke:#006ED2;stroke-width:2;stroke-linecap:round;stroke-linejoin:round;stroke-dasharray:3.8,7.6;}
</style>
<g>
	<defs>
		<rect id="SVGID_9_" x="-78" y="-1743.7" width="268" height="88"/>
	</defs>
	<clipPath id="SVGID_2_">
		<use xlink:href="#SVGID_9_"  style="overflow:visible;"/>
	</clipPath>
	<g style="clip-path:url(#SVGID_2_);">
		<defs>
			<rect id="SVGID_11_" x="-273" y="-1807.7" width="1344" height="2750"/>
		</defs>
		<clipPath id="SVGID_4_">
			<use xlink:href="#SVGID_11_"  style="overflow:visible;"/>
		</clipPath>
	</g>
</g>
<g>
	<path class="st7" d="M300.5,16.2h4.9l7.6,23.5h-4.4l-1.8-6.4H299l-1.8,6.4h-4.2L300.5,16.2z M299.9,30.1h6l-0.8-2.9
		c-0.7-2.5-1.4-5.1-2.1-7.8h-0.1c-0.6,2.6-1.4,5.3-2.1,7.8L299.9,30.1z"/>
	<path class="st7" d="M316.9,16.2h7.3c4.9,0,8.4,1.5,8.4,5.8c0,2.2-1.3,4.4-4.1,5.1v0.1c3.4,0.6,5.3,2.4,5.3,5.6
		c0,4.7-3.8,6.9-9,6.9h-7.9V16.2z M323.8,25.9c3.3,0,4.6-1.2,4.6-3.4c0-2.2-1.5-3-4.5-3H321v6.3H323.8z M324.3,36.4
		c3.5,0,5.3-1.2,5.3-3.9c0-2.5-1.8-3.5-5.3-3.5H321v7.3H324.3z"/>
	<path class="st7" d="M338.4,36.2h5.7V19.7h-5.7v-3.5h15.6v3.5h-5.7v16.5h5.7v3.5h-15.6V36.2z"/>
	<path class="st7" d="M365.7,19.7h-7.4v-3.5h19v3.5h-7.4v20h-4.2V19.7z"/>
	<path class="st7" d="M387.3,19.7h-7.4v-3.5h19v3.5h-7.4v20h-4.2V19.7z"/>
	<path class="st7" d="M403.2,36.2h5.7V19.7h-5.7v-3.5h15.6v3.5h-5.7v16.5h5.7v3.5h-15.6V36.2z"/>
	<path class="st7" d="M342.6,68.5c0-2.1,1.5-3.6,3.6-3.6s3.6,1.5,3.6,3.6c0,2.1-1.5,3.6-3.6,3.6S342.6,70.6,342.6,68.5z"/>
	<path class="st7" d="M359.8,48.2h6.2c6.9,0,11.1,3.9,11.1,11.7c0,7.8-4.1,11.9-10.9,11.9h-6.4V48.2z M365.7,68.4
		c4.5,0,7.1-2.7,7.1-8.5c0-5.8-2.6-8.3-7.1-8.3h-1.8v16.8H365.7z"/>
	<path class="st7" d="M382.3,48.2h15.1v3.5h-10.9v6h9.3v3.5h-9.3v6.9h11.3v3.5h-15.4V48.2z"/>
	<path class="st7" d="M401.2,48.2h4.4l3.3,11.8c0.8,2.7,1.3,5,2.1,7.7h0.1c0.8-2.7,1.3-5,2.1-7.7l3.3-11.8h4.3l-7.3,23.5h-4.9
		L401.2,48.2z"/>
	<path class="st14" d="M210.2,65.2c0.1,0.1,1.2,0.8,2.5,0.6c1-0.2,1.9-0.9,2.6-2.2c1.2-2,3.6-6.4,6.2-11c3.3-6,6.8-12.2,8.4-14.8
		c0.3-0.6,0.7-1.2,1.2-1.8c-0.7-0.2-1.4-0.4-2-0.6c-4.5-1.2-8-2.2-10.4-2.2c-1.5,0-2.4,0.4-2.9,1.2c-0.4,0.7-0.4,1.4-0.2,2
		c0.1,0.3,0.2,0.5,0.4,0.7c0.1-0.6,0.4-1.3,1.1-1.9c0,0,0,0,0,0c1-0.9,2.5-1.1,3.8-0.5c1.5,0.7,2.5,2.1,2.5,3.7
		c0,1.4-0.5,2.6-1.3,3.5c-0.9,0.8-2,1.3-3.4,1.2c-2.4-0.1-5-1.5-6.6-3.7c-1.1-1.5-2.1-3.9-1.1-7.2c0.7-2.4,2.2-4.2,4.2-5.3
		c4.3-2.3,11.3-1.9,22,1.4c2.1-2.4,4.1-4.5,5.9-6.1c3.5-3.3,9.8-7.3,17.5-9.6h-49.9c-0.3,1.5-1.5,2.6-2.9,2.9v49
		C208.3,64.2,209.1,64.3,210.2,65.2z"/>
	<path class="st14" d="M251.1,31.4C251.1,31.4,251.1,31.4,251.1,31.4c0.8-1.3,1.7-2.6,2.5-3.8c0.9-1.3,1.9-2.8,2.6-3.9
		c-1.4,1.1-4,3.6-7.2,8.3c0.5,0.1,1.1,0.3,1.6,0.4C250.7,32.1,250.9,31.8,251.1,31.4z"/>
	<path class="st14" d="M263.6,34.3c2.2-0.4,3.9-0.8,4.6,0.6c0.4,0.7,0.3,1.5-0.1,2.5c-0.7,1.7-2.5,3.2-4.2,3.7
		c-1.5,0.4-2.7,0.5-5.4,0.4c-1,3.3-1.7,6.5-2.1,9.5c-0.6,4.4,0.3,6.4,1.3,6.8c1.1,0.4,2.9-0.8,4.3-3.1c0,0,0,0,0,0
		c1.9-2.8,3.4-2.5,4.1-2.2c1.8,0.9,2,4.6,0.5,8.3c-0.8,2.1-3.9,9.2-11,10.4c-3.7,0.6-6.9-0.2-9.1-2.5c-3.2-3.2-4.3-9-3.2-16
		c0.6-3.7,2-8.3,3.7-12.7c-0.8-0.1-1.6-0.3-2.5-0.5c-1.4,2.5-2.6,5-3.7,7.1c-1,2.1-1.9,3.8-2.7,5.2c-0.4,0.6-0.9,1.7-1.5,2.9
		c-2.9,5.9-8,16.4-15.5,20.3h46.3c0.3-1.5,1.5-2.6,2.9-2.9V16.9c-1.8,2.6-6.2,9.7-9.5,17.5C261.9,34.5,262.8,34.4,263.6,34.3z"/>
	<path class="st14" d="M235.2,54.1c0.6-1.3,1.1-2.4,1.5-3c0.8-1.3,1.6-3.1,2.7-5.1c1.2-2.3,2.5-4.9,4-7.7c0.2-0.3,0.5-0.4,0.8-0.4
		c1.5,0.4,2.8,0.6,3.9,0.8c0.2,0,0.4,0.2,0.5,0.4c0.1,0.2,0.1,0.4,0,0.7c-1.9,4.6-3.4,9.4-4,13.3c-1,6.5,0,11.9,2.8,14.7
		c1.9,1.9,4.5,2.6,7.8,2c1.6-0.3,7-1.7,9.9-9.4c1.4-3.5,0.8-6.1,0.2-6.4c-0.3-0.2-1.1,0.3-2.1,1.7c-1.9,2.9-4.2,4.3-6.1,3.7
		c-1.2-0.4-3.1-2.1-2.2-8.4c0.4-3.2,1.2-6.7,2.3-10.2c0.1-0.3,0.4-0.5,0.7-0.5c3,0.1,4.1,0,5.6-0.4c1.2-0.3,2.6-1.6,3.2-2.9
		c0.2-0.5,0.3-0.9,0.1-1.2c-0.2-0.3-1.3-0.1-3,0.2c-1.1,0.2-2.5,0.2-4.3,0c-0.2,0-0.4-0.2-0.5-0.4c-0.1-0.2-0.1-0.4,0-0.7
		c3.8-9.3,9.3-17.7,10.6-19.5c-1.1-0.5-2-1.5-2.2-2.7c-0.7,0.1-1.6,0.2-2.7,0.4c-9.2,2-16.6,6.6-20.5,10.3c-1.8,1.7-3.9,3.9-6.1,6.3
		c-0.2,0.2-0.5,0.3-0.8,0.2c-10.4-3.2-17.3-3.7-21.3-1.6c-1.8,0.9-2.9,2.4-3.5,4.4c-0.8,2.8,0,4.7,0.9,5.9c1.5,2,3.8,3,5.4,3
		c1,0,1.8-0.2,2.4-0.8c0.6-0.6,0.9-1.4,0.9-2.4c0-1-0.6-1.9-1.6-2.3c-0.4-0.2-1.4-0.5-2.2,0.2c-1,1-0.7,2.1-0.7,2.1
		c0.1,0.3,0,0.6-0.2,0.8c-0.2,0.2-0.5,0.2-0.8,0.1c-0.4-0.2-1.7-0.9-2.2-2.4c-0.4-1-0.3-2.1,0.3-3.2c0,0,0,0,0-0.1
		c0.8-1.3,2.2-2,4.2-2c2.5,0,6,1,10.8,2.3c1,0.3,2,0.6,3.1,0.8c0.2,0.1,0.4,0.2,0.5,0.5c0.1,0.2,0,0.5-0.1,0.7
		c-0.7,1-1.3,1.8-1.7,2.6c-1.6,2.6-5.1,8.8-8.4,14.8c-2.6,4.7-5,9.1-6.2,11.1c-1,1.7-2.2,2.6-3.7,2.9c-2,0.4-3.6-0.8-3.7-0.9
		c0,0,0,0,0,0c-0.5-0.4-0.8-0.6-1-0.6c0,0,0,0-0.1,0c-0.1,0-0.3,0.4-0.4,1.3c-0.1,1,0.6,4.2,3,6.3c1.3,1.1,2.7,1.6,4.5,1.6h0.1
		c0.8,0,1.6-0.1,2.5-0.3C226.2,72.5,232.2,60.1,235.2,54.1z M247.1,32.1c3.6-5.3,8.2-10.7,10.3-10.5c0,0,0,0,0,0
		c0.3,0,0.6,0.2,0.7,0.5c0.4,0.8-0.3,1.9-3.3,6.3c-0.8,1.3-1.7,2.5-2.5,3.8c-0.3,0.4-0.5,0.9-0.8,1.5c-0.1,0.2-0.4,0.4-0.7,0.4
		c-0.1,0-0.1,0-0.2,0c-0.7-0.2-1.6-0.4-2.3-0.6c-0.3-0.1-0.6-0.2-0.9-0.2c-0.2-0.1-0.4-0.2-0.5-0.5
		C246.9,32.6,246.9,32.3,247.1,32.1z"/>
	<path class="st7" d="M247.5,33.2c0.3,0.1,0.6,0.1,0.9,0.2c0.7,0.2,1.6,0.4,2.3,0.6c0.1,0,0.1,0,0.2,0c0.3,0,0.5-0.1,0.7-0.4
		c0.3-0.5,0.6-1,0.8-1.5c0.8-1.2,1.6-2.5,2.5-3.8c3-4.4,3.6-5.5,3.3-6.3c-0.1-0.3-0.4-0.5-0.7-0.5c0,0,0,0,0,0
		c-2-0.2-6.7,5.2-10.3,10.5c-0.1,0.2-0.2,0.5-0.1,0.7C247.1,33,247.3,33.2,247.5,33.2z M256.2,23.7c-0.6,1.1-1.7,2.6-2.6,3.9
		c-0.9,1.3-1.7,2.6-2.5,3.8c0,0,0,0,0,0c-0.2,0.3-0.4,0.7-0.6,1c-0.5-0.1-1.1-0.3-1.6-0.4C252.2,27.3,254.7,24.8,256.2,23.7z"/>
	<path class="st7" d="M271.7,72.1V15.4c1.7-0.3,3-1.9,3-3.7c0-2.1-1.7-3.8-3.8-3.8c-1.8,0-3.3,1.3-3.7,3h-56.7c-0.3-1.7-1.9-3-3.7-3
		c-2.1,0-3.8,1.7-3.8,3.8c0,1.8,1.3,3.3,3,3.7v56.7c-1.7,0.3-3,1.9-3,3.7c0,2.1,1.7,3.8,3.8,3.8c1.8,0,3.3-1.3,3.7-3h56.7
		c0.3,1.7,1.9,3,3.7,3c2.1,0,3.8-1.7,3.8-3.8C274.7,73.9,273.5,72.4,271.7,72.1z M207.7,15.4c1.5-0.3,2.6-1.5,2.9-2.9h49.9
		c-7.7,2.4-14,6.4-17.5,9.6c-1.8,1.6-3.8,3.7-5.9,6.1c-10.7-3.2-17.6-3.7-22-1.4c-2.1,1.1-3.5,2.9-4.2,5.3c-1,3.3,0.1,5.8,1.1,7.2
		c1.5,2.1,4.2,3.6,6.6,3.7c1.4,0,2.6-0.4,3.4-1.2c0.9-0.8,1.3-2.1,1.3-3.5c0-1.6-1-3-2.5-3.7c-1.4-0.6-2.8-0.4-3.8,0.5c0,0,0,0,0,0
		c-0.6,0.6-0.9,1.3-1.1,1.9c-0.2-0.2-0.3-0.4-0.4-0.7c-0.2-0.6-0.1-1.3,0.2-2c0.5-0.8,1.4-1.2,2.9-1.2c2.3,0,5.9,1,10.4,2.2
		c0.7,0.2,1.3,0.4,2,0.6c-0.5,0.7-0.8,1.3-1.2,1.8c-1.6,2.6-5.1,8.8-8.4,14.8c-2.6,4.6-5,9-6.2,11c-0.8,1.3-1.6,2-2.6,2.2
		c-1.3,0.2-2.4-0.5-2.5-0.6c-1.1-1-1.9-1-2.5-0.8V15.4z M215.2,75L215.2,75c-1.8,0-3.3-0.6-4.5-1.6c-2.4-2-3.1-5.3-3-6.3
		c0.1-0.9,0.3-1.2,0.4-1.3c0,0,0,0,0.1,0c0.2,0,0.5,0.1,1,0.6c0,0,0,0,0,0c0.1,0.1,1.7,1.3,3.7,0.9c1.4-0.3,2.7-1.2,3.7-2.9
		c1.2-2,3.7-6.4,6.2-11.1c3.3-6,6.8-12.1,8.4-14.8c0.5-0.8,1-1.6,1.7-2.6c0.1-0.2,0.2-0.5,0.1-0.7c-0.1-0.2-0.3-0.4-0.5-0.5
		c-1.1-0.3-2.1-0.6-3.1-0.8c-4.8-1.3-8.2-2.3-10.8-2.3c-2,0-3.4,0.6-4.2,2c0,0,0,0,0,0.1c-0.5,1.1-0.6,2.2-0.3,3.2
		c0.5,1.5,1.8,2.2,2.2,2.4c0.3,0.1,0.6,0.1,0.8-0.1c0.2-0.2,0.3-0.5,0.2-0.8c0,0-0.3-1.1,0.7-2.1c0.8-0.7,1.8-0.4,2.2-0.2
		c1,0.4,1.6,1.3,1.6,2.3c0,1-0.3,1.8-0.9,2.4c-0.6,0.5-1.4,0.8-2.4,0.8c-1.6,0-3.9-1-5.4-3c-0.9-1.2-1.7-3.2-0.9-5.9
		c0.6-2,1.8-3.5,3.5-4.4c3.9-2.1,10.9-1.6,21.3,1.6c0.3,0.1,0.6,0,0.8-0.2c2.1-2.5,4.2-4.7,6.1-6.3c3.9-3.6,11.4-8.2,20.5-10.3
		c1.1-0.2,2-0.4,2.7-0.4c0.3,1.2,1.1,2.2,2.2,2.7c-1.3,1.8-6.7,10.2-10.6,19.5c-0.1,0.2-0.1,0.5,0,0.7c0.1,0.2,0.3,0.3,0.5,0.4
		c1.7,0.2,3.1,0.3,4.3,0c1.7-0.3,2.8-0.5,3-0.2c0.1,0.3,0.1,0.7-0.1,1.2c-0.6,1.3-1.9,2.5-3.2,2.9c-1.5,0.4-2.6,0.5-5.6,0.4
		c-0.3,0-0.6,0.2-0.7,0.5c-1.1,3.6-1.9,7-2.3,10.2c-0.9,6.2,1,7.9,2.2,8.4c1.9,0.7,4.2-0.7,6.1-3.7c1-1.4,1.8-1.9,2.1-1.7
		c0.7,0.4,1.2,2.9-0.2,6.4c-2.8,7.7-8.3,9.2-9.9,9.4c-3.3,0.5-5.9-0.2-7.8-2c-2.8-2.8-3.8-8.2-2.8-14.7c0.6-3.8,2.1-8.7,4-13.3
		c0.1-0.2,0.1-0.5,0-0.7c-0.1-0.2-0.3-0.3-0.5-0.4c-1.1-0.2-2.4-0.4-3.9-0.8c-0.3-0.1-0.7,0.1-0.8,0.4c-1.5,2.8-2.8,5.4-4,7.7
		c-1,2-1.9,3.8-2.7,5.1c-0.4,0.7-0.9,1.7-1.5,3c-2.9,6-9,18.4-17.5,20.6C216.8,74.9,216,75,215.2,75z M270.2,72.1
		c-1.5,0.3-2.6,1.5-2.9,2.9H221c7.5-3.9,12.6-14.3,15.5-20.3c0.6-1.3,1.1-2.3,1.5-2.9c0.8-1.4,1.7-3.1,2.7-5.2
		c1.1-2.2,2.3-4.6,3.7-7.1c0.9,0.2,1.8,0.4,2.5,0.5c-1.8,4.4-3.1,9-3.7,12.7c-1.1,7,0.1,12.8,3.2,16c2.2,2.2,5.4,3.1,9.1,2.5
		c7.1-1.1,10.2-8.3,11-10.4c1.5-3.7,1.2-7.3-0.5-8.3c-0.7-0.4-2.2-0.6-4.1,2.2c0,0,0,0,0,0c-1.4,2.2-3.2,3.5-4.3,3.1
		c-1-0.4-1.9-2.3-1.3-6.8c0.4-3,1.1-6.2,2.1-9.5c2.7,0.1,3.9,0,5.4-0.4c1.7-0.5,3.4-2,4.2-3.7c0.4-0.9,0.4-1.8,0.1-2.5
		c-0.7-1.3-2.4-1-4.6-0.6c-0.7,0.1-1.7,0.2-2.8,0.1c3.3-7.8,7.7-14.9,9.5-17.5V72.1z"/>
	<path class="st7" d="M85.9,210.3h9.7v1.7H88v4.9h6.5v1.7H88v5.7h8v1.7h-10V210.3z"/>
	<path class="st7" d="M103.6,220l-4.1-5.6h2.2l1.8,2.6c0.4,0.6,0.9,1.3,1.4,2h0.1c0.4-0.6,0.9-1.4,1.3-2l1.8-2.5h2.1l-4.2,5.8
		l4.5,5.9h-2.2l-2-2.7c-0.5-0.7-1-1.4-1.5-2.1h-0.1c-0.5,0.7-1,1.4-1.4,2.1l-1.9,2.7h-2.1L103.6,220z"/>
	<path class="st7" d="M113.9,223c0-2.6,2.4-3.9,8.4-4.4c0-1.6-0.8-2.9-3.1-2.9c-1.5,0-3,0.7-4.1,1.4l-0.8-1.3
		c1.2-0.8,3.1-1.7,5.2-1.7c3.2,0,4.7,1.9,4.7,4.8v7.2h-1.6l-0.2-1.6h-0.1c-1.3,1-3,1.9-4.6,1.9C115.7,226.3,113.9,225.1,113.9,223z
		 M122.4,223v-3.1c-5,0.4-6.5,1.4-6.5,2.9c0,1.3,1.2,1.9,2.6,1.9C119.8,224.7,121.1,224.1,122.4,223z"/>
	<path class="st7" d="M127.8,214.3h1.6l0.2,1.5h0c0.6-1.1,1.3-1.8,2.7-1.8c1.2,0,1.9,0.7,2.2,2c0.7-1.2,1.4-2,2.7-2
		c1.6,0,2.6,1.3,2.6,3.6v8.4h-2v-8.2c0-1.3-0.4-2-1.2-2c-0.8,0-1.2,0.6-1.9,1.8v8.4h-1.8v-8.2c0-1.3-0.3-2-1.2-2
		c-0.8,0-1.3,0.6-1.9,1.8v8.4h-2V214.3z"/>
	<path class="st7" d="M71.5,234.3h9.7v1.7h-7.7v4.9h6.5v1.7h-6.5v5.7h8v1.7h-10V234.3z"/>
	<path class="st7" d="M85.4,238.3h1.6l0.2,2h0.1c1.2-1.3,2.6-2.3,4.4-2.3c2.8,0,4,1.6,4,4.7v7.2h-2v-7c0-2.2-0.8-3.3-2.7-3.3
		c-1.4,0-2.3,0.7-3.7,2.1v8.1h-2V238.3z"/>
	<path class="st7" d="M99.3,252.1c0-0.9,0.7-1.9,1.9-2.6v-0.1c-0.6-0.3-1.2-0.9-1.2-1.9c0-0.7,0.5-1.6,1.4-2.2v-0.1
		c-0.8-0.6-1.4-1.6-1.4-3c0-2.5,2.1-4.2,4.6-4.2c0.7,0,1.2,0.1,1.7,0.3h4.8v1.6h-3c0.5,0.6,1,1.4,1,2.4c0,2.5-2,4-4.5,4
		c-0.6,0-1.3-0.1-2-0.4c-0.6,0.4-0.9,0.8-0.9,1.3c0,0.9,0.9,1.3,2.4,1.3h2.6c3,0,4.4,0.8,4.4,2.7c0,2.2-2.5,4.1-6.5,4.1
		C101.3,255.4,99.3,254.2,99.3,252.1z M109.2,251.6c0-1.1-0.9-1.4-2.7-1.4h-2.3c-0.7,0-1.3,0-1.8-0.2c-1.1,0.6-1.5,1.3-1.5,1.9
		c0,1.2,1.3,2,3.8,2C107.6,253.9,109.2,252.8,109.2,251.6z M107.3,242.2c0-1.6-1.2-2.7-2.7-2.7c-1.5,0-2.7,1.1-2.7,2.7
		c0,1.7,1.2,2.8,2.7,2.8C106.1,245,107.3,243.9,107.3,242.2z"/>
	<path class="st7" d="M119.6,239.9h-5.4v-1.6h7.4V250h-2V239.9z M118.8,234.4c0-0.9,0.7-1.5,1.6-1.5c0.9,0,1.6,0.6,1.6,1.5
		c0,0.9-0.7,1.5-1.6,1.5C119.5,235.9,118.8,235.3,118.8,234.4z"/>
	<path class="st7" d="M128.6,238.3h1.6l0.2,2h0.1c1.2-1.3,2.6-2.3,4.4-2.3c2.8,0,4,1.6,4,4.7v7.2h-2v-7c0-2.2-0.8-3.3-2.7-3.3
		c-1.4,0-2.3,0.7-3.7,2.1v8.1h-2V238.3z"/>
	<path class="st7" d="M142.4,244.1c0-3.8,2.8-6.1,6-6.1c3.4,0,5.3,2.2,5.3,5.5c0,0.5,0,0.9-0.1,1.2h-9.2c0.2,2.6,2.1,4,4.5,4
		c1.4,0,2.5-0.4,3.6-1.1l0.7,1.3c-1.2,0.8-2.6,1.4-4.5,1.4C145.2,250.3,142.4,248,142.4,244.1z M144.5,243.2h7.4
		c-0.2-2.4-1.5-3.6-3.5-3.6C146.5,239.6,144.8,240.9,144.5,243.2z"/>
	<path class="st7" d="M136,175c-0.3,0-0.6-0.1-0.8-0.4c-0.4-0.4-0.3-1.1,0.1-1.4l96-80c0.4-0.4,1.1-0.3,1.4,0.1
		c0.4,0.4,0.3,1.1-0.1,1.4l-96,80C136.5,174.9,136.2,175,136,175z"/>
	<path class="st7" d="M488,175c-0.2,0-0.5-0.1-0.6-0.2l-96-80c-0.4-0.4-0.5-1-0.1-1.4c0.4-0.4,1-0.5,1.4-0.1l96,80
		c0.4,0.4,0.5,1,0.1,1.4C488.6,174.9,488.3,175,488,175z"/>
	<path class="st7" d="M200,273H24c-0.6,0-1-0.4-1-1v-80c0-0.6,0.4-1,1-1h176c0.6,0,1,0.4,1,1v80C201,272.6,200.6,273,200,273z
		 M25,271h174v-78H25V271z"/>
	<path class="st7" d="M249.6,210.3h4.9c3.2,0,5.5,1.2,5.5,4.4c0,2.4-1.4,3.9-3.5,4.5l4,6.9h-2.3l-3.8-6.6h-2.8v6.6h-2V210.3z
		 M254.2,217.7c2.4,0,3.8-1,3.8-3c0-2.1-1.3-2.8-3.8-2.8h-2.6v5.9H254.2z"/>
	<path class="st7" d="M269.2,215.9h-5.4v-1.6h7.4V226h-2V215.9z M268.4,210.4c0-0.9,0.7-1.5,1.6-1.5c0.9,0,1.6,0.6,1.6,1.5
		c0,0.9-0.7,1.5-1.6,1.5C269.1,211.9,268.4,211.3,268.4,210.4z"/>
	<path class="st7" d="M277.9,220.2c0-3.9,3-6.1,6.5-6.1c1.9,0,3.3,0.8,4.2,1.7l-1,1.3c-1-0.8-2-1.3-3.2-1.3c-2.7,0-4.5,1.8-4.5,4.5
		c0,2.7,1.8,4.5,4.5,4.5c1.4,0,2.6-0.6,3.6-1.5l0.9,1.3c-1.3,1.2-2.9,1.8-4.6,1.8C280.7,226.3,277.9,224.1,277.9,220.2z"/>
	<path class="st7" d="M292.6,208.9h2v4.7l-0.1,2.8h0.1c1.2-1.3,2.5-2.3,4.4-2.3c2.8,0,4,1.6,4,4.7v7.2h-2v-7c0-2.2-0.8-3.3-2.7-3.3
		c-1.4,0-2.3,0.7-3.7,2.1v8.1h-2V208.9z"/>
	<path class="st7" d="M325.4,211.9h-5.2v-1.7h12.4v1.7h-5.2V226h-2V211.9z"/>
	<path class="st7" d="M335.2,220.1c0-3.8,2.8-6.1,6-6.1c3.4,0,5.3,2.2,5.3,5.5c0,0.5,0,0.9-0.1,1.2h-9.2c0.2,2.6,2.1,4,4.5,4
		c1.4,0,2.5-0.4,3.6-1.1l0.7,1.3c-1.2,0.8-2.6,1.4-4.5,1.4C338,226.3,335.2,224,335.2,220.1z M337.3,219.2h7.4
		c-0.2-2.4-1.5-3.6-3.5-3.6C339.3,215.6,337.6,216.9,337.3,219.2z"/>
	<path class="st7" d="M354,220l-4.1-5.6h2.2l1.8,2.6c0.4,0.6,0.9,1.3,1.4,2h0.1c0.4-0.6,0.9-1.4,1.3-2l1.8-2.5h2.1l-4.2,5.8l4.5,5.9
		h-2.2l-2-2.7c-0.5-0.7-1-1.4-1.5-2.1H355c-0.5,0.7-1,1.4-1.4,2.1l-1.9,2.7h-2.1L354,220z"/>
	<path class="st7" d="M367.3,221.5v-5.5h-3.3v-1.5l3.4-0.1l0.3-3.7h1.6v3.7h5.7v1.6h-5.7v5.5c0,2.1,0.7,3.2,3,3.2
		c1.1,0,2-0.2,2.8-0.5l0.4,1.4c-1.1,0.4-2.2,0.7-3.6,0.7C368.4,226.3,367.3,224.3,367.3,221.5z"/>
	<path class="st7" d="M271.5,234.3h9.7v1.7h-7.7v4.9h6.5v1.7h-6.5v5.7h8v1.7h-10V234.3z"/>
	<path class="st7" d="M284.6,244.2c0-3.8,2.5-6.1,5.3-6.1c1.4,0,2.5,0.6,3.5,1.5h0.1l-0.1-2.2v-4.5h2V250h-1.6l-0.2-1.5h-0.1
		c-1,1-2.4,1.8-3.8,1.8C286.7,250.3,284.6,248.1,284.6,244.2z M293.4,246.9v-5.8c-1.1-1-2.1-1.4-3.1-1.4c-2,0-3.6,1.8-3.6,4.5
		c0,2.8,1.3,4.5,3.4,4.5C291.3,248.6,292.4,248,293.4,246.9z"/>
	<path class="st7" d="M305.2,239.9h-5.4v-1.6h7.4V250h-2V239.9z M304.4,234.4c0-0.9,0.7-1.5,1.6-1.5c0.9,0,1.6,0.6,1.6,1.5
		c0,0.9-0.7,1.5-1.6,1.5C305.1,235.9,304.4,235.3,304.4,234.4z"/>
	<path class="st7" d="M316.9,245.5v-5.5h-3.3v-1.5l3.4-0.1l0.3-3.7h1.6v3.7h5.7v1.6h-5.7v5.5c0,2.1,0.7,3.2,3,3.2
		c1.1,0,2-0.2,2.8-0.5l0.4,1.4c-1.1,0.4-2.2,0.7-3.6,0.7C318,250.3,316.9,248.3,316.9,245.5z"/>
	<path class="st7" d="M327.8,244.2c0-3.9,2.7-6.1,5.8-6.1s5.8,2.2,5.8,6.1c0,3.9-2.7,6.1-5.8,6.1S327.8,248.1,327.8,244.2z
		 M337.3,244.2c0-2.7-1.5-4.5-3.7-4.5c-2.2,0-3.7,1.8-3.7,4.5c0,2.7,1.5,4.5,3.7,4.5C335.8,248.7,337.3,246.9,337.3,244.2z"/>
	<path class="st7" d="M344.3,238.3h1.6l0.2,2.8h0.1c1.2-1.9,3-3,5.2-3c0.9,0,1.6,0.1,2.3,0.5l-0.5,1.7c-0.8-0.3-1.2-0.4-2.2-0.4
		c-1.8,0-3.4,0.9-4.8,3.3v6.8h-2V238.3z"/>
	<path class="st7" d="M312,175c-0.6,0-1-0.4-1-1V94c0-0.6,0.4-1,1-1s1,0.4,1,1v80C313,174.6,312.6,175,312,175z"/>
	<path class="st7" d="M400,273H224c-0.6,0-1-0.4-1-1v-80c0-0.6,0.4-1,1-1h176c0.6,0,1,0.4,1,1v80C401,272.6,400.6,273,400,273z
		 M225,271h174v-78H225V271z"/>
	<path class="st7" d="M600,273h-2c-0.6,0-1-0.4-1-1s0.4-1,1-1h1v-1c0-0.6,0.4-1,1-1s1,0.4,1,1v2C601,272.6,600.6,273,600,273z"/>
	<path class="st7" d="M590.2,273h-3.9c-0.6,0-1-0.4-1-1s0.4-1,1-1h3.9c0.6,0,1,0.4,1,1S590.7,273,590.2,273z M578.5,273h-3.9
		c-0.6,0-1-0.4-1-1s0.4-1,1-1h3.9c0.6,0,1,0.4,1,1S579,273,578.5,273z M566.7,273h-3.9c-0.6,0-1-0.4-1-1s0.4-1,1-1h3.9
		c0.6,0,1,0.4,1,1S567.3,273,566.7,273z M555,273h-3.9c-0.6,0-1-0.4-1-1s0.4-1,1-1h3.9c0.6,0,1,0.4,1,1S555.6,273,555,273z
		 M543.3,273h-3.9c-0.6,0-1-0.4-1-1s0.4-1,1-1h3.9c0.6,0,1,0.4,1,1S543.8,273,543.3,273z M531.5,273h-3.9c-0.6,0-1-0.4-1-1
		s0.4-1,1-1h3.9c0.6,0,1,0.4,1,1S532.1,273,531.5,273z M519.8,273h-3.9c-0.6,0-1-0.4-1-1s0.4-1,1-1h3.9c0.6,0,1,0.4,1,1
		S520.4,273,519.8,273z M508.1,273h-3.9c-0.6,0-1-0.4-1-1s0.4-1,1-1h3.9c0.6,0,1,0.4,1,1S508.6,273,508.1,273z M496.4,273h-3.9
		c-0.6,0-1-0.4-1-1s0.4-1,1-1h3.9c0.6,0,1,0.4,1,1S496.9,273,496.4,273z M484.6,273h-3.9c-0.6,0-1-0.4-1-1s0.4-1,1-1h3.9
		c0.6,0,1,0.4,1,1S485.2,273,484.6,273z M472.9,273H469c-0.6,0-1-0.4-1-1s0.4-1,1-1h3.9c0.6,0,1,0.4,1,1S473.5,273,472.9,273z
		 M461.2,273h-3.9c-0.6,0-1-0.4-1-1s0.4-1,1-1h3.9c0.6,0,1,0.4,1,1S461.7,273,461.2,273z M449.5,273h-3.9c-0.6,0-1-0.4-1-1
		s0.4-1,1-1h3.9c0.6,0,1,0.4,1,1S450,273,449.5,273z M437.7,273h-3.9c-0.6,0-1-0.4-1-1s0.4-1,1-1h3.9c0.6,0,1,0.4,1,1
		S438.3,273,437.7,273z"/>
	<path class="st7" d="M426,273h-2c-0.6,0-1-0.4-1-1v-2c0-0.6,0.4-1,1-1s1,0.4,1,1v1h1c0.6,0,1,0.4,1,1S426.6,273,426,273z"/>
	<path class="st7" d="M424,263.4c-0.6,0-1-0.4-1-1v-3.8c0-0.6,0.4-1,1-1s1,0.4,1,1v3.8C425,263,424.6,263.4,424,263.4z M424,252
		c-0.6,0-1-0.4-1-1v-3.8c0-0.6,0.4-1,1-1s1,0.4,1,1v3.8C425,251.6,424.6,252,424,252z M424,240.6c-0.6,0-1-0.4-1-1v-3.8
		c0-0.6,0.4-1,1-1s1,0.4,1,1v3.8C425,240.2,424.6,240.6,424,240.6z M424,229.2c-0.6,0-1-0.4-1-1v-3.8c0-0.6,0.4-1,1-1s1,0.4,1,1v3.8
		C425,228.8,424.6,229.2,424,229.2z M424,217.8c-0.6,0-1-0.4-1-1V213c0-0.6,0.4-1,1-1s1,0.4,1,1v3.8
		C425,217.4,424.6,217.8,424,217.8z M424,206.4c-0.6,0-1-0.4-1-1v-3.8c0-0.6,0.4-1,1-1s1,0.4,1,1v3.8C425,206,424.6,206.4,424,206.4
		z"/>
	<path class="st7" d="M424,195c-0.6,0-1-0.4-1-1v-2c0-0.6,0.4-1,1-1h2c0.6,0,1,0.4,1,1s-0.4,1-1,1h-1v1C425,194.6,424.6,195,424,195
		z"/>
	<path class="st7" d="M590.2,193h-3.9c-0.6,0-1-0.4-1-1s0.4-1,1-1h3.9c0.6,0,1,0.4,1,1S590.7,193,590.2,193z M578.5,193h-3.9
		c-0.6,0-1-0.4-1-1s0.4-1,1-1h3.9c0.6,0,1,0.4,1,1S579,193,578.5,193z M566.7,193h-3.9c-0.6,0-1-0.4-1-1s0.4-1,1-1h3.9
		c0.6,0,1,0.4,1,1S567.3,193,566.7,193z M555,193h-3.9c-0.6,0-1-0.4-1-1s0.4-1,1-1h3.9c0.6,0,1,0.4,1,1S555.6,193,555,193z
		 M543.3,193h-3.9c-0.6,0-1-0.4-1-1s0.4-1,1-1h3.9c0.6,0,1,0.4,1,1S543.8,193,543.3,193z M531.5,193h-3.9c-0.6,0-1-0.4-1-1
		s0.4-1,1-1h3.9c0.6,0,1,0.4,1,1S532.1,193,531.5,193z M519.8,193h-3.9c-0.6,0-1-0.4-1-1s0.4-1,1-1h3.9c0.6,0,1,0.4,1,1
		S520.4,193,519.8,193z M508.1,193h-3.9c-0.6,0-1-0.4-1-1s0.4-1,1-1h3.9c0.6,0,1,0.4,1,1S508.6,193,508.1,193z M496.4,193h-3.9
		c-0.6,0-1-0.4-1-1s0.4-1,1-1h3.9c0.6,0,1,0.4,1,1S496.9,193,496.4,193z M484.6,193h-3.9c-0.6,0-1-0.4-1-1s0.4-1,1-1h3.9
		c0.6,0,1,0.4,1,1S485.2,193,484.6,193z M472.9,193H469c-0.6,0-1-0.4-1-1s0.4-1,1-1h3.9c0.6,0,1,0.4,1,1S473.5,193,472.9,193z
		 M461.2,193h-3.9c-0.6,0-1-0.4-1-1s0.4-1,1-1h3.9c0.6,0,1,0.4,1,1S461.7,193,461.2,193z M449.5,193h-3.9c-0.6,0-1-0.4-1-1
		s0.4-1,1-1h3.9c0.6,0,1,0.4,1,1S450,193,449.5,193z M437.7,193h-3.9c-0.6,0-1-0.4-1-1s0.4-1,1-1h3.9c0.6,0,1,0.4,1,1
		S438.3,193,437.7,193z"/>
	<path class="st7" d="M600,195c-0.6,0-1-0.4-1-1v-1h-1c-0.6,0-1-0.4-1-1s0.4-1,1-1h2c0.6,0,1,0.4,1,1v2C601,194.6,600.6,195,600,195
		z"/>
	<path class="st7" d="M600,263.4c-0.6,0-1-0.4-1-1v-3.8c0-0.6,0.4-1,1-1s1,0.4,1,1v3.8C601,263,600.6,263.4,600,263.4z M600,252
		c-0.6,0-1-0.4-1-1v-3.8c0-0.6,0.4-1,1-1s1,0.4,1,1v3.8C601,251.6,600.6,252,600,252z M600,240.6c-0.6,0-1-0.4-1-1v-3.8
		c0-0.6,0.4-1,1-1s1,0.4,1,1v3.8C601,240.2,600.6,240.6,600,240.6z M600,229.2c-0.6,0-1-0.4-1-1v-3.8c0-0.6,0.4-1,1-1s1,0.4,1,1v3.8
		C601,228.8,600.6,229.2,600,229.2z M600,217.8c-0.6,0-1-0.4-1-1V213c0-0.6,0.4-1,1-1s1,0.4,1,1v3.8
		C601,217.4,600.6,217.8,600,217.8z M600,206.4c-0.6,0-1-0.4-1-1v-3.8c0-0.6,0.4-1,1-1s1,0.4,1,1v3.8C601,206,600.6,206.4,600,206.4
		z"/>
	<path class="st7" d="M517.3,218.6c0-3-2-5.2-5.9-5.2c-2.8,0-5.1,1.2-7,3.1l-2.6-2.4c2.4-2.5,5.8-4.4,9.9-4.4c6,0,10,3.3,10,8.4
		c0,7.3-9.8,8.9-8.9,15.9h-3.9C507.6,226.2,517.3,224.1,517.3,218.6z M507.3,242.9c0-2.5,1.8-4.1,3.9-4.1s3.9,1.6,3.9,4.1
		c0,2.6-1.8,4.2-3.9,4.2S507.3,245.5,507.3,242.9z"/>
</g>
</svg>
