<?xml version="1.0" encoding="UTF-8"?>
<svg id="Layer_1" data-name="Layer 1" xmlns="http://www.w3.org/2000/svg" viewBox="0 0 280 93">
  <defs>
    <style>
      .cls-1 {
        fill: none;
      }

      .cls-2 {
        fill: #006ed2;
      }
    </style>
  </defs>
  <g>
    <path class="cls-1" d="m9,73.7c.2.1,1.6,1.1,3.2.8,1.3-.2,2.4-1.2,3.4-2.8,1.5-2.6,4.7-8.2,8-14.2,4.3-7.7,8.7-15.7,10.8-19.1.4-.7.9-1.5,1.5-2.3-.9-.2-1.8-.5-2.6-.7-5.8-1.6-10.4-2.9-13.4-2.9-1.9,0-3,.5-3.7,1.6-.5,1-.5,1.8-.3,2.6.1.3.3.6.5.9.2-.8.6-1.6,1.4-2.5h0c1.3-1.2,3.2-1.4,4.9-.6,1.9.9,3.2,2.7,3.2,4.7,0,1.8-.6,3.4-1.7,4.5s-2.6,1.6-4.4,1.6c-3.1-.1-6.5-2-8.5-4.7-1.4-1.9-2.7-5-1.4-9.3.9-3.1,2.8-5.4,5.5-6.8,5.6-3,14.5-2.4,28.3,1.8,2.7-3.1,5.3-5.8,7.6-7.9,4.5-4.4,12.6-9.5,22.5-12.6H9.6c-.4,1.9-1.9,3.4-3.8,3.8v63c.7-.2,1.7-.2,3.2,1.1Z"/>
    <path class="cls-1" d="m61.6,30.2h0c1-1.6,2.2-3.3,3.3-4.9,1.1-1.7,2.5-3.7,3.3-5-1.8,1.4-5.1,4.6-9.3,10.7.7.2,1.4.4,2,.5.2-.5.4-.9.7-1.3Z"/>
    <path class="cls-1" d="m77.6,33.9c2.8-.5,5-1,5.9.8.5.9.4,2-.1,3.2-.9,2.2-3.2,4.2-5.3,4.8-1.9.5-3.5.7-7,.6-1.2,4.3-2.2,8.4-2.7,12.2-.8,5.7.3,8.2,1.6,8.7,1.5.5,3.7-1.1,5.5-3.9h0c2.4-3.6,4.3-3.3,5.2-2.8,2.3,1.2,2.5,5.9.7,10.6-1,2.7-5,11.9-14.2,13.4-4.8.8-8.8-.3-11.7-3.2-4-4.3-5.5-11.8-4.1-20.8.8-4.8,2.5-10.7,4.8-16.4-1-.2-2.1-.4-3.3-.7-1.8,3.3-3.4,6.4-4.8,9.2-1.3,2.7-2.5,4.9-3.5,6.7-.5.8-1.1,2.1-1.9,3.8-3.7,7.6-10.3,21.1-20,26.1h59.7c.4-1.9,1.9-3.4,3.8-3.8V11.4c-2.3,3.4-7.9,12.5-12.2,22.5,1.5.2,2.7.1,3.6,0Z"/>
    <path class="cls-1" d="m41.1,59.3c.8-1.7,1.5-3,2-3.9,1-1.7,2.1-4,3.4-6.6,1.5-3,3.2-6.3,5.1-9.9.2-.4.6-.6,1.1-.5,1.9.5,3.6.8,5,1,.3,0,.6.2.7.5.1.3.2.6.1.8-2.4,5.9-4.3,12.1-5.1,17.1-1.3,8.4,0,15.3,3.6,18.9,2.4,2.4,5.8,3.3,10,2.6,2.1-.3,9.1-2.2,12.7-12.2,1.8-4.5,1.1-7.8.2-8.3-.4-.2-1.5.4-2.7,2.2-2.4,3.8-5.4,5.6-7.8,4.7-1.6-.6-4-2.7-2.9-10.8.6-4.1,1.6-8.6,3-13.2.1-.4.5-.7,1-.7,3.8.1,5.3,0,7.1-.5,1.6-.4,3.4-2,4.1-3.7.3-.6.3-1.2.2-1.5-.2-.4-1.6-.2-3.8.2-1.4.3-3.3.3-5.5,0-.3,0-.6-.2-.7-.5s-.2-.6-.1-.8c4.9-11.9,11.9-22.8,13.6-25.1-1.4-.6-2.5-1.9-2.9-3.4-.9.1-2.1.3-3.5.6-11.8,2.7-21.4,8.6-26.4,13.3-2.3,2.1-5,5-7.8,8.2-.3.3-.6.4-1,.3-13.4-4.1-22.3-4.8-27.4-2.1-2.3,1.2-3.7,3.1-4.5,5.7-1.1,3.5,0,6.1,1.2,7.6,1.9,2.6,4.9,3.9,7,3.9,1.3,0,2.3-.3,3-1s1.1-1.8,1.1-3.1-.8-2.4-2-3c-.5-.2-1.8-.6-2.9.3-1.2,1.2-.9,2.7-.8,2.7.1.4,0,.8-.3,1s-.7.3-1,.1c-.5-.2-2.2-1.2-2.9-3-.5-1.3-.3-2.7.4-4.1v-.1c1-1.7,2.8-2.5,5.4-2.5,3.3,0,7.7,1.2,13.9,2.9,1.2.3,2.6.7,3.9,1.1.3.1.6.3.7.6.1.3.1.6-.1.9-.9,1.2-1.6,2.4-2.2,3.4-2.1,3.4-6.5,11.3-10.8,19-3.3,6-6.5,11.7-8,14.3-1.3,2.1-2.9,3.4-4.7,3.7-2.6.5-4.7-1.1-4.8-1.1h-.1c-.6-.5-1.1-.7-1.3-.7h-.1c-.1.1-.4.5-.6,1.6-.1,1.3.8,5.5,3.8,8.1,1.6,1.4,3.5,2.1,5.7,2.1h.1c1,0,2-.1,3.2-.4,10.8-3,18.6-19,22.4-26.7Zm15.3-28.3c4.6-6.8,10.6-13.7,13.2-13.5h0c.4,0,.8.3,1,.7.5,1-.4,2.5-4.2,8.2-1.1,1.6-2.2,3.3-3.2,4.8-.3.6-.7,1.2-1.1,1.9-.2.3-.5.5-.8.5h-.2c-.9-.2-2-.5-3-.7-.4-.1-.8-.2-1.1-.3s-.6-.3-.7-.6c-.1-.4,0-.7.1-1Z"/>
    <path class="cls-2" d="m57,32.5c.3.1.7.2,1.1.3,1,.3,2.1.5,3,.7h.2c.3,0,.7-.2.8-.5.4-.7.7-1.3,1.1-1.9,1-1.6,2.1-3.2,3.2-4.8,3.8-5.7,4.7-7.1,4.2-8.2-.2-.4-.5-.6-1-.7h0c-2.6-.1-8.6,6.8-13.2,13.6-.2.3-.2.6-.1.9.1.3.4.5.7.6Zm11.1-12.3c-.8,1.4-2.1,3.3-3.3,5-1.1,1.6-2.2,3.3-3.2,4.9h0c-.2.4-.5.8-.8,1.3-.7-.2-1.4-.3-2-.5,4.2-6.1,7.5-9.3,9.3-10.7Z"/>
    <path class="cls-2" d="m88.2,82.5V9.6c2.2-.5,3.8-2.4,3.8-4.8C92,2.2,89.9,0,87.2,0,84.9,0,82.9,1.7,82.5,3.9H9.6C9.1,1.7,7.2,0,4.8,0,2.2,0,0,2.2,0,4.8c0,2.3,1.7,4.3,3.9,4.7v72.9c-2.2.5-3.9,2.5-3.9,4.8,0,2.7,2.2,4.8,4.8,4.8,2.3,0,4.3-1.7,4.7-3.9h72.9c.4,2.2,2.4,3.9,4.7,3.9,2.7,0,4.8-2.2,4.8-4.8.1-2.3-1.5-4.3-3.7-4.7ZM5.8,9.6c1.9-.4,3.4-1.9,3.8-3.8h64.3c-10,3.1-18,8.2-22.5,12.4-2.4,2.1-5,4.8-7.7,7.8-13.7-4.1-22.7-4.7-28.2-1.8-2.7,1.4-4.5,3.7-5.5,6.8-1.3,4.3.1,7.4,1.4,9.3,2,2.7,5.4,4.6,8.5,4.7,1.8,0,3.3-.5,4.4-1.6s1.7-2.7,1.7-4.5c0-2-1.2-3.9-3.2-4.7-1.8-.8-3.6-.5-4.9.6h0c-.8.8-1.2,1.7-1.4,2.5-.2-.3-.4-.6-.5-.9-.3-.8-.2-1.6.3-2.6.7-1.1,1.8-1.6,3.7-1.6,3,0,7.6,1.3,13.4,2.9.8.2,1.7.5,2.6.7-.6.8-1.1,1.6-1.5,2.3-2.1,3.4-6.5,11.4-10.8,19.1-3.3,6-6.5,11.6-8,14.2-1,1.6-2.1,2.6-3.4,2.8-1.6.3-3.1-.6-3.2-.8-1.4-1.2-2.5-1.3-3.2-1.1V9.6h-.1Zm9.6,76.6h0c-2.3,0-4.2-.7-5.8-2.1-3-2.6-4-6.8-3.8-8.1.1-1.2.4-1.6.6-1.6h.1c.2,0,.7.2,1.3.7h.1c.1.1,2.2,1.6,4.8,1.1,1.8-.3,3.4-1.6,4.7-3.7,1.5-2.6,4.7-8.3,8-14.3,4.3-7.7,8.7-15.6,10.8-19,.6-1,1.3-2.1,2.2-3.4.2-.3.2-.6.1-.9-.1-.3-.4-.5-.7-.6-1.4-.4-2.7-.7-3.9-1.1-6.2-1.7-10.6-2.9-13.9-2.9-2.6,0-4.4.8-5.4,2.5v.1c-.7,1.5-.8,2.8-.4,4.1.7,1.9,2.4,2.8,2.9,3,.3.2.7.1,1-.1.3-.2.4-.6.3-1,0-.1-.4-1.5.8-2.7,1.1-1,2.4-.5,2.9-.3,1.2.6,2,1.7,2,3s-.4,2.4-1.1,3.1c-.7.7-1.8,1.1-3,1-2-.1-5.1-1.3-7-3.9-1.1-1.5-2.2-4.1-1.2-7.6.8-2.6,2.3-4.5,4.5-5.7,5.1-2.7,14-2,27.4,2.1.4.1.8,0,1-.3,2.8-3.2,5.5-6,7.8-8.2,5.1-4.5,14.7-10.4,26.5-13,1.4-.3,2.6-.5,3.5-.6.3,1.6,1.4,2.8,2.9,3.4-1.6,2.3-8.7,13.2-13.6,25.1-.1.3-.1.6.1.8.1.3.4.4.7.5,2.2.3,4,.3,5.5,0,2.2-.4,3.6-.6,3.8-.2.2.3.1.9-.2,1.5-.7,1.6-2.5,3.2-4.1,3.7-1.9.5-3.3.6-7.1.5-.4,0-.8.3-1,.7-1.4,4.6-2.4,9-3,13.2-1.1,8,1.3,10.2,2.9,10.8,2.4.9,5.4-.9,7.8-4.7,1.3-1.8,2.3-2.4,2.7-2.2.8.5,1.5,3.8-.2,8.3-3.6,10-10.6,11.8-12.7,12.2-4.2.7-7.6-.2-10-2.6-3.6-3.6-5-10.5-3.6-18.9.8-4.9,2.7-11.2,5.1-17.1.1-.3.1-.6-.1-.8-.1-.3-.4-.4-.7-.5-1.5-.2-3.1-.5-5-1-.4-.1-.9.1-1.1.5-2,3.6-3.7,6.9-5.1,9.9-1.3,2.6-2.4,4.9-3.4,6.6-.5.9-1.2,2.2-2,3.9-3.8,7.6-11.6,23.6-22.5,26.4-1.1.3-2.2.4-3.2.4Zm70.8-3.7c-1.9.4-3.4,1.9-3.8,3.8H22.8c9.7-5,16.3-18.5,20-26.1.8-1.7,1.4-3,1.9-3.8,1-1.7,2.2-4,3.5-6.7,1.4-2.8,3-5.9,4.8-9.2,1.2.3,2.3.5,3.3.7-2.3,5.7-4,11.6-4.8,16.4-1.4,9,.1,16.5,4.2,20.6,2.9,2.9,6.9,3.9,11.7,3.2,9.2-1.5,13.2-10.6,14.2-13.4,1.9-4.8,1.6-9.4-.7-10.6-.9-.5-2.8-.8-5.2,2.8h0c-1.8,2.9-4.1,4.5-5.5,3.9-1.3-.5-2.4-3-1.6-8.7.5-3.8,1.4-7.9,2.7-12.2,3.5.1,5,0,7-.6,2.1-.6,4.4-2.6,5.3-4.8.5-1.2.6-2.3.1-3.2-.9-1.7-3.1-1.3-5.9-.8-1,.2-2.2.2-3.6.1,4.3-10.1,9.9-19.1,12.2-22.5v71.1h-.2Z"/>
  </g>
  <path class="cls-2" d="m125.2,10.6h6.3l9.8,30.3h-5.7l-2.3-8.2h-10.1l-2.4,8.2h-5.5l9.9-30.3Zm-.8,17.9h7.7l-1.1-3.7c-.9-3.2-1.9-6.6-2.7-10h-.2c-.8,3.4-1.8,6.8-2.7,10l-1,3.7Z"/>
  <path class="cls-2" d="m146.3,10.6h9.4c6.3,0,10.8,1.9,10.8,7.5,0,2.9-1.7,5.7-5.2,6.6v.2c4.4.7,6.8,3.1,6.8,7.2,0,6.1-4.9,8.9-11.5,8.9h-10.2V10.6h-.1Zm8.9,12.4c4.2,0,5.9-1.5,5.9-4.4s-1.9-3.8-5.8-3.8h-3.7v8.2h3.6Zm.7,13.6c4.4,0,6.8-1.5,6.8-5,0-3.2-2.3-4.5-6.8-4.5h-4.3v9.5h4.3Z"/>
  <path class="cls-2" d="m174,36.3h7.3V15.1h-7.3v-4.5h20v4.5h-7.3v21.2h7.3v4.5h-20v-4.5Z"/>
  <path class="cls-2" d="m209.1,15.1h-9.5v-4.5h24.4v4.5h-9.5v25.8h-5.4V15.1Z"/>
  <path class="cls-2" d="m236.9,15.1h-9.5v-4.5h24.5v4.5h-9.5v25.8h-5.4V15.1h-.1Z"/>
  <path class="cls-2" d="m264.65,56.3h-9.5v-4.5h24.5v4.5h-9.5v25.8h-5.4v-25.8h-.1Z"/>
  <path class="cls-2" d="m257.4,36.3h7.3V15.1h-7.3v-4.5h20v4.5h-7.3v21.2h7.3v4.5h-20v-4.5Z"/>
  <path class="cls-2" d="m176.4,77.9c0-2.7,1.9-4.7,4.6-4.7s4.6,2,4.6,4.7-1.9,4.7-4.6,4.7-4.6-2-4.6-4.7Z"/>
  <path class="cls-2" d="m230.5,51.8h19.4v4.5h-14v7.7h11.9v4.5h-11.9v8.9h14.5v4.5h-19.9v-30.1Z"/>
  <path class="cls-2" d="m198.5,81.95v-30.15h7.12c3.96,6.87,11.75,20.03,13.24,23.31h.07c-.32-3.39-.31-8.46-.31-13.4v-9.91h5.18v30.15h-6.74c-3.49-6.11-11.92-20.86-13.55-24.31h-.07c.22,2.91.27,8.73.27,14.15v10.16h-5.21Z"/>
</svg>