<?xml version="1.0" encoding="utf-8"?>
<!-- Generator: Adobe Illustrator 22.1.0, SVG Export Plug-In . SVG Version: 6.00 Build 0)  -->
<svg version="1.1" id="Layer_1" xmlns="http://www.w3.org/2000/svg" xmlns:xlink="http://www.w3.org/1999/xlink" x="0px" y="0px"
	 width="624px" height="320px" viewBox="0 0 624 320" style="enable-background:new 0 0 624 320;" xml:space="preserve">
<style type="text/css">
	.st0{fill:#5AD2FF;}
	.st1{fill:none;stroke:#00C6FB;stroke-width:4;stroke-linecap:round;stroke-linejoin:round;stroke-miterlimit:10;}
	.st2{fill:#00C6FB;}
	.st3{fill:#333333;}
	.st4{fill:none;stroke:#333333;stroke-width:3;stroke-linecap:round;stroke-linejoin:round;stroke-miterlimit:10;}
	.st5{fill:none;stroke:#00C6FB;stroke-width:3;stroke-linecap:round;stroke-linejoin:round;stroke-miterlimit:10;}
	.st6{fill:none;stroke:#006ED2;stroke-width:4;stroke-linejoin:round;stroke-miterlimit:10;}
	.st7{fill:#006ED2;}
	.st8{clip-path:url(#SVGID_2_);fill:#006ED2;}
	.st9{clip-path:url(#SVGID_4_);fill:#5AD2FF;}
	.st10{fill:none;stroke:#006ED2;stroke-width:4;stroke-linecap:round;stroke-linejoin:round;stroke-miterlimit:10;}
	.st11{fill:none;stroke:#006ED2;stroke-width:6;stroke-linejoin:round;stroke-miterlimit:10;}
	.st12{clip-path:url(#SVGID_6_);}
	.st13{clip-path:url(#SVGID_8_);fill:#006ED2;}
	.st14{fill:none;}
	.st15{clip-path:url(#SVGID_10_);}
	.st16{clip-path:url(#SVGID_12_);enable-background:new    ;}
	.st17{clip-path:url(#SVGID_14_);}
	.st18{clip-path:url(#SVGID_16_);}
	.st19{clip-path:url(#SVGID_18_);fill:#006ED2;}
	.st20{clip-path:url(#SVGID_20_);}
	.st21{clip-path:url(#SVGID_22_);fill:#006ED2;}
	.st22{clip-path:url(#SVGID_24_);}
	.st23{clip-path:url(#SVGID_26_);fill:#006ED2;}
	.st24{clip-path:url(#SVGID_28_);}
	.st25{clip-path:url(#SVGID_30_);fill:#006ED2;}
	.st26{clip-path:url(#SVGID_32_);}
	.st27{clip-path:url(#SVGID_34_);fill:#006ED2;}
	.st28{clip-path:url(#SVGID_36_);}
	.st29{clip-path:url(#SVGID_38_);fill:#006ED2;}
	.st30{clip-path:url(#SVGID_40_);}
	.st31{clip-path:url(#SVGID_42_);fill:#006ED2;}
	.st32{clip-path:url(#SVGID_44_);}
	.st33{clip-path:url(#SVGID_46_);fill:#006ED2;}
	.st34{clip-path:url(#SVGID_48_);}
	.st35{clip-path:url(#SVGID_50_);fill:#006ED2;}
	.st36{clip-path:url(#SVGID_52_);}
	.st37{clip-path:url(#SVGID_54_);fill:#006ED2;}
	.st38{clip-path:url(#SVGID_56_);}
	.st39{clip-path:url(#SVGID_58_);fill:#006ED2;}
	.st40{clip-path:url(#SVGID_60_);}
	.st41{clip-path:url(#SVGID_62_);fill:#006ED2;}
	.st42{clip-path:url(#SVGID_64_);}
	.st43{clip-path:url(#SVGID_66_);fill:#006ED2;}
	.st44{clip-path:url(#SVGID_68_);}
	.st45{clip-path:url(#SVGID_70_);fill:#006ED2;}
	.st46{clip-path:url(#SVGID_72_);}
	.st47{clip-path:url(#SVGID_74_);fill:#006ED2;}
	.st48{clip-path:url(#SVGID_76_);}
	.st49{clip-path:url(#SVGID_78_);fill:#006ED2;}
	.st50{fill:#FFFFFF;stroke:#231F20;stroke-width:2;stroke-miterlimit:10;}
	.st51{fill:none;stroke:#006ED2;stroke-width:2;stroke-linecap:round;stroke-linejoin:round;stroke-miterlimit:10;}
</style>
<g>
	<defs>
		<rect id="SVGID_9_" x="-78" y="-1005.3" width="268" height="88"/>
	</defs>
	<clipPath id="SVGID_2_">
		<use xlink:href="#SVGID_9_"  style="overflow:visible;"/>
	</clipPath>
	<g style="clip-path:url(#SVGID_2_);">
		<defs>
			<rect id="SVGID_11_" x="-273" y="-1069.3" width="1344" height="2750"/>
		</defs>
		<clipPath id="SVGID_4_">
			<use xlink:href="#SVGID_11_"  style="overflow:visible;"/>
		</clipPath>
	</g>
</g>
<g>
	<rect class="st14" width="624" height="320"/>
	<g>
		<polygon class="st14" points="244.4,177 217,204.4 217,225.6 265.6,177 		"/>
		<polygon class="st14" points="379.6,303 407,275.6 407,254.4 358.4,303 		"/>
		<polygon class="st14" points="407,303 407,278.4 382.4,303 		"/>
		<polygon class="st14" points="217,177 217,201.6 241.6,177 		"/>
		<path class="st14" d="M353,204c0,0.6-0.4,1-1,1h-20c-0.6,0-1-0.4-1-1c0-15-14.8-27-27-27h-35.6L217,228.4V303h138.6l51.4-51.4V177
			h-73.6C343.7,181.2,353,191.7,353,204z M243.3,227.7l-10.8,7.3v0.1l10.8,7.3v2.8l-13.4-9.1v-2.2l13.4-9.1V227.7z M266.4,239.1
			h-13.8c0.4,4,3.2,6,6.8,6c2.1,0,3.7-0.6,5.3-1.7l1.1,1.9c-1.7,1.2-4,2.1-6.8,2.1c-5.3,0-9.4-3.4-9.4-9.2c0-5.7,4.2-9.1,8.9-9.1
			c5,0,8,3.3,8,8.2C266.6,238,266.5,238.6,266.4,239.1z M279.6,247.4c-1.6,0-2.9-1.2-2.9-3c0-1.8,1.3-3.1,2.9-3.1
			c1.6,0,2.9,1.2,2.9,3.1C282.5,246.2,281.2,247.4,279.6,247.4z M279.6,234.5c-1.6,0-2.9-1.2-2.9-3c0-1.8,1.3-3.1,2.9-3.1
			c1.6,0,2.9,1.2,2.9,3.1C282.5,233.3,281.2,234.5,279.6,234.5z M309.6,239.1h-13.8c0.4,4,3.2,6,6.8,6c2.1,0,3.7-0.6,5.3-1.7
			l1.1,1.9c-1.7,1.2-4,2.1-6.8,2.1c-5.3,0-9.4-3.4-9.4-9.2c0-5.7,4.2-9.1,8.9-9.1c5,0,8,3.3,8,8.2
			C309.8,238,309.7,238.6,309.6,239.1z M328,247l-3.1-4c-0.7-1-1.5-2.2-2.3-3.2h-0.1c-0.7,1-1.4,2.1-2.2,3.2l-2.9,4h-3.2l6.7-9.1
			l-6.2-8.4h3.3l2.8,3.9c0.6,0.9,1.3,2,2.1,3h0.1c0.6-1,1.4-2.1,2-3l2.6-3.8h3.1l-6.2,8.7l6.7,8.8H328z M352.1,247h-2.4l-0.3-2.4
			h-0.1c-1.9,1.5-4.4,2.8-6.9,2.8c-3.3,0-5.9-1.8-5.9-5c0-3.9,3.6-5.8,12.7-6.6c-0.1-2.4-1.3-4.4-4.6-4.4c-2.3,0-4.5,1.1-6.1,2.1
			l-1.2-2c1.8-1.2,4.7-2.5,7.8-2.5c4.8,0,7.1,2.8,7.1,7.2V247z M380.7,242.4l10.8-7.3V235l-10.8-7.3v-2.8l13.4,9.1v2.2l-13.4,9.1
			V242.4z M357.3,229.5h2.4l0.3,2.3h0.1c0.9-1.6,2-2.7,4-2.7c1.7,0,2.8,1,3.3,3c1-1.9,2.1-3,4.1-3c2.4,0,3.9,1.9,3.9,5.4V247h-3
			v-12.3c0-2-0.6-3.1-1.9-3.1c-1.2,0-1.9,0.9-2.8,2.7V247h-2.7v-12.3c0-2-0.5-3.1-1.8-3.1c-1.2,0-2,0.9-2.9,2.7V247h-3V229.5z"/>
		<path class="st14" d="M301.8,231.4c-2.9,0-5.4,1.9-5.9,5.4h11.2C306.8,233.2,304.8,231.4,301.8,231.4z"/>
		<path class="st14" d="M258.6,231.4c-2.9,0-5.4,1.9-5.9,5.4h11.2C263.6,233.2,261.6,231.4,258.6,231.4z"/>
		<path class="st14" d="M339.4,242.2c0,2,1.8,2.8,3.9,2.8c2,0,4-0.9,5.9-2.6v-4.6C341.7,238.5,339.4,239.9,339.4,242.2z"/>
		<path class="st14" d="M263,175c-8.3-3.6-14-11.9-14-21.5c0-9.1,5.2-17,12.8-20.9c-2.2-0.4-4.6-0.6-7.3-0.6
			c-11.9,0-21.5,9.6-21.5,21.5s9.6,21.5,21.5,21.5H263z"/>
		<path class="st14" d="M301.9,145.2c-0.9-6.4,0.5-13,4-18.8c3.8-6.3,9.5-10.6,15-11.2c2.1-0.2,4.1-0.3,5.9,0l-7.6-5.5
			c-2.4-0.9-5.3-1.1-8.7-0.7c-8.8,1-18.3,13.2-17.1,27C296.8,138.5,299.6,141.7,301.9,145.2z"/>
		<path class="st14" d="M289.1,154c5.9,10.8,11.5,21,28.4,21h6.3c-1.2-0.4-2.2-1-3.3-1.5c-0.1,0-0.1-0.1-0.2-0.1
			c-3.8-2.2-6.7-5.3-9.2-8.7c0,0,0,0,0-0.1c-2.2-3-4-6.3-5.8-9.6c-6.2-11.3-12.6-23-32.9-23c-1.3,0-2.5,0.1-3.8,0.4
			C279.5,136.5,284.4,145.3,289.1,154z"/>
		<path class="st14" d="M321,171.4c6.5-3.9,10.1-10.5,13.9-17.4c4.8-8.7,9.6-17.6,20.4-21.7c-1.2-0.2-2.5-0.4-3.8-0.4
			c-20.3,0-26.7,11.7-32.9,23c-1.7,3.1-3.4,6.2-5.4,9.1C315.4,167,317.9,169.5,321,171.4z"/>
		<path class="st14" d="M336.6,155c-3.6,6.5-7.3,13.3-13.6,17.5c3.3,1.6,7.4,2.5,12.5,2.5h16c11.9,0,21.5-9.6,21.5-21.5
			c0-9.3-5.9-17.2-14.1-20.2C346.7,136.7,341.6,146,336.6,155z"/>
		<path class="st14" d="M375,153.5c0,9.6-5.8,17.9-14,21.5h8.5c11.9,0,21.5-9.6,21.5-21.5s-9.6-21.5-21.5-21.5
			c-2.7,0-5.1,0.2-7.3,0.6C369.8,136.5,375,144.4,375,153.5z"/>
		<path class="st14" d="M333,203h18c-0.6-14.5-15-26-27-26h-10.6C323.4,181.1,332.5,191.1,333,203z"/>
		<path class="st14" d="M251,153.5c0,11.9,9.6,21.5,21.5,21.5h33.3c-9.5-3.7-14-12-18.5-20c-5-9-10-18.3-22.2-21.6
			C256.9,136.3,251,144.2,251,153.5z"/>
		<polygon class="st7" points="229.9,236.2 243.3,245.3 243.3,242.4 232.5,235.1 232.5,235 243.3,227.7 243.3,224.8 229.9,233.9 		
			"/>
		<path class="st7" d="M258.6,229.1c-4.7,0-8.9,3.5-8.9,9.1c0,5.8,4.2,9.2,9.4,9.2c2.8,0,5-0.9,6.8-2.1l-1.1-1.9
			c-1.6,1-3.2,1.7-5.3,1.7c-3.6,0-6.4-2-6.8-6h13.8c0.1-0.5,0.1-1.1,0.1-1.8C266.6,232.3,263.6,229.1,258.6,229.1z M252.7,236.8
			c0.5-3.5,3.1-5.4,5.9-5.4c3,0,5,1.8,5.2,5.4H252.7z"/>
		<path class="st7" d="M279.6,241.3c-1.6,0-2.9,1.2-2.9,3.1c0,1.8,1.3,3,2.9,3c1.6,0,2.9-1.2,2.9-3
			C282.5,242.6,281.2,241.3,279.6,241.3z"/>
		<path class="st7" d="M279.6,228.5c-1.6,0-2.9,1.2-2.9,3.1c0,1.8,1.3,3,2.9,3c1.6,0,2.9-1.2,2.9-3
			C282.5,229.7,281.2,228.5,279.6,228.5z"/>
		<path class="st7" d="M301.8,229.1c-4.7,0-8.9,3.5-8.9,9.1c0,5.8,4.2,9.2,9.4,9.2c2.8,0,5-0.9,6.8-2.1l-1.1-1.9
			c-1.6,1-3.2,1.7-5.3,1.7c-3.6,0-6.4-2-6.8-6h13.8c0.1-0.5,0.1-1.1,0.1-1.8C309.8,232.3,306.8,229.1,301.8,229.1z M295.9,236.8
			c0.5-3.5,3.1-5.4,5.9-5.4c3,0,5,1.8,5.2,5.4H295.9z"/>
		<path class="st7" d="M330.8,229.5h-3.1l-2.6,3.8c-0.6,1-1.3,2.1-2,3h-0.1c-0.7-1-1.4-2-2.1-3l-2.8-3.9h-3.3l6.2,8.4l-6.7,9.1h3.2
			l2.9-4c0.7-1.1,1.4-2.1,2.2-3.2h0.1c0.8,1,1.6,2.2,2.3,3.2l3.1,4h3.2l-6.7-8.8L330.8,229.5z"/>
		<path class="st7" d="M345,229.1c-3.1,0-6,1.4-7.8,2.5l1.2,2c1.6-1,3.9-2.1,6.1-2.1c3.4,0,4.6,2,4.6,4.4c-9,0.7-12.7,2.6-12.7,6.6
			c0,3.1,2.7,5,5.9,5c2.5,0,5-1.3,6.9-2.8h0.1l0.3,2.4h2.4v-10.7C352.1,231.9,349.8,229.1,345,229.1z M349.2,242.5
			c-2,1.7-4,2.6-5.9,2.6c-2,0-3.9-0.8-3.9-2.8c0-2.3,2.3-3.8,9.8-4.4V242.5z"/>
		<path class="st7" d="M360.2,234.3c0.9-1.8,1.7-2.7,2.9-2.7c1.3,0,1.8,1,1.8,3.1V247h2.7v-12.7c0.9-1.8,1.6-2.7,2.8-2.7
			c1.3,0,1.9,1,1.9,3.1V247h3v-12.5c0-3.5-1.4-5.4-3.9-5.4c-2,0-3.1,1.2-4.1,3c-0.5-2-1.6-3-3.3-3c-2,0-3.1,1.1-4,2.7h-0.1l-0.3-2.3
			h-2.4V247h3V234.3z"/>
		<polygon class="st7" points="394.1,233.9 380.7,224.8 380.7,227.7 391.5,235 391.5,235.1 380.7,242.4 380.7,245.3 394.1,236.2 		
			"/>
		<polygon points="556.4,157.4 553.8,157.4 542,188.8 544.6,188.8 		"/>
		<polygon points="578,188.8 566.2,157.4 563.6,157.4 575.4,188.8 		"/>
		<polygon points="513.2,189.4 510.6,189.4 498.8,220.8 501.4,220.8 		"/>
		<polygon points="534.8,220.8 523,189.4 520.4,189.4 532.2,220.8 		"/>
		<polygon points="556.4,189.4 553.8,189.4 542,220.8 544.6,220.8 		"/>
		<polygon points="575.4,220.8 578,220.8 566.2,189.4 563.6,189.4 		"/>
		<polygon points="599.6,189.4 597,189.4 585.2,220.8 587.8,220.8 		"/>
		<polygon points="621.2,220.8 609.4,189.4 606.8,189.4 618.6,220.8 		"/>
		<polygon points="470,221.4 467.4,221.4 455.6,252.8 458.2,252.8 		"/>
		<polygon points="491.6,252.8 479.8,221.4 477.2,221.4 489,252.8 		"/>
		<polygon points="513.2,221.4 510.6,221.4 498.8,252.8 501.4,252.8 		"/>
		<polygon points="532.2,252.8 534.8,252.8 523,221.4 520.4,221.4 		"/>
		<polygon points="556.4,221.4 553.8,221.4 542,252.8 544.6,252.8 		"/>
		<polygon points="575.4,252.8 578,252.8 566.2,221.4 563.6,221.4 		"/>
		<polygon points="599.6,221.4 597,221.4 585.2,252.8 587.8,252.8 		"/>
		<polygon points="618.6,252.8 621.2,252.8 609.4,221.4 606.8,221.4 		"/>
		<polygon points="470,253.4 467.4,253.4 455.6,284.8 458.2,284.8 		"/>
		<polygon points="489,284.8 491.6,284.8 479.8,253.4 477.2,253.4 		"/>
		<polygon points="513.2,253.4 510.6,253.4 498.8,284.8 501.4,284.8 		"/>
		<polygon points="532.2,284.8 534.8,284.8 523,253.4 520.4,253.4 		"/>
		<polygon points="556.4,253.4 553.8,253.4 542,284.8 544.6,284.8 		"/>
		<polygon points="575.4,284.8 578,284.8 566.2,253.4 563.6,253.4 		"/>
		<polygon points="599.6,253.4 597,253.4 585.2,284.8 587.8,284.8 		"/>
		<polygon points="618.6,284.8 621.2,284.8 609.4,253.4 606.8,253.4 		"/>
		<polygon class="st7" points="3,25.9 4.5,27 8.8,21.3 13.1,27 14.6,25.9 10.7,20 16.6,17.5 16,15.8 10,17.8 9.7,11 7.9,11 
			7.6,17.8 1.6,15.8 1,17.5 6.9,20 		"/>
		<polygon class="st7" points="89.4,25.9 90.9,27 95.2,21.3 99.5,27 101,25.9 97.1,20 103,17.5 102.4,15.8 96.4,17.8 96.1,11 
			94.3,11 94,17.8 88,15.8 87.4,17.5 93.3,20 		"/>
		<polygon class="st7" points="175.8,25.9 177.3,27 181.6,21.3 185.9,27 187.4,25.9 183.5,20 189.4,17.5 188.8,15.8 182.8,17.8 
			182.5,11 180.7,11 180.4,17.8 174.4,15.8 173.8,17.5 179.7,20 		"/>
		<polygon class="st7" points="262.2,25.9 263.7,27 268,21.3 272.3,27 273.8,25.9 269.9,20 275.8,17.5 275.2,15.8 269.2,17.8 
			268.9,11 267.1,11 266.8,17.8 260.8,15.8 260.2,17.5 266.1,20 		"/>
		<polygon class="st7" points="348.6,25.9 350.1,27 354.4,21.3 358.7,27 360.2,25.9 356.3,20 362.2,17.5 361.6,15.8 355.6,17.8 
			355.3,11 353.5,11 353.2,17.8 347.2,15.8 346.6,17.5 352.4,20 		"/>
		<polygon class="st7" points="442,17.8 441.7,11 439.9,11 439.6,17.8 433.6,15.8 433,17.5 438.8,20 435,25.9 436.5,27 440.8,21.3 
			445.1,27 446.6,25.9 442.7,20 448.6,17.5 448,15.8 		"/>
		<polygon class="st7" points="528.4,17.8 528.1,11 526.3,11 526,17.8 520,15.8 519.4,17.5 525.2,20 521.4,25.9 522.9,27 
			527.2,21.3 531.5,27 533,25.9 529.1,20 535,17.5 534.4,15.8 		"/>
		<polygon class="st7" points="607.8,25.9 609.3,27 613.6,21.3 617.9,27 619.4,25.9 615.5,20 621.4,17.5 620.8,15.8 614.8,17.8 
			614.5,11 612.7,11 612.4,17.8 606.4,15.8 605.8,17.5 611.6,20 		"/>
		<polygon class="st7" points="46.2,57.9 47.7,59 52,53.3 56.3,59 57.8,57.9 53.9,52 59.8,49.5 59.2,47.8 53.2,49.8 52.9,43 
			51.1,43 50.8,49.8 44.8,47.8 44.2,49.5 50.1,52 		"/>
		<polygon class="st7" points="132.6,57.9 134.1,59 138.4,53.3 142.7,59 144.2,57.9 140.3,52 146.2,49.5 145.6,47.8 139.6,49.8 
			139.3,43 137.5,43 137.2,49.8 131.2,47.8 130.6,49.5 136.5,52 		"/>
		<polygon class="st7" points="219,57.9 220.5,59 224.8,53.3 229.1,59 230.6,57.9 226.7,52 232.6,49.5 232,47.8 226,49.8 225.7,43 
			223.9,43 223.6,49.8 217.6,47.8 217,49.5 222.9,52 		"/>
		<polygon class="st7" points="305.4,57.9 306.9,59 311.2,53.3 315.5,59 317,57.9 313.1,52 319,49.5 318.4,47.8 312.4,49.8 
			312.1,43 310.3,43 310,49.8 304,47.8 303.4,49.5 309.2,52 		"/>
		<polygon class="st7" points="391.8,57.9 393.3,59 397.6,53.3 401.9,59 403.4,57.9 399.5,52 405.4,49.5 404.8,47.8 398.8,49.8 
			398.5,43 396.7,43 396.4,49.8 390.4,47.8 389.8,49.5 395.6,52 		"/>
		<polygon class="st7" points="485.2,49.8 484.9,43 483.1,43 482.8,49.8 476.8,47.8 476.2,49.5 482,52 478.2,57.9 479.7,59 
			484,53.3 488.3,59 489.8,57.9 485.9,52 491.8,49.5 491.2,47.8 		"/>
		<polygon class="st7" points="571.6,49.8 571.3,43 569.5,43 569.2,49.8 563.2,47.8 562.6,49.5 568.4,52 564.6,57.9 566.1,59 
			570.4,53.3 574.7,59 576.2,57.9 572.3,52 578.2,49.5 577.6,47.8 		"/>
		<polygon class="st7" points="3,89.9 4.5,91 8.8,85.3 13.1,91 14.6,89.9 10.7,84 16.6,81.5 16,79.8 10,81.8 9.7,75 7.9,75 
			7.6,81.8 1.6,79.8 1,81.5 6.9,84 		"/>
		<polygon class="st7" points="89.4,89.9 90.9,91 95.2,85.3 99.5,91 101,89.9 97.1,84 103,81.5 102.4,79.8 96.4,81.8 96.1,75 
			94.3,75 94,81.8 88,79.8 87.4,81.5 93.3,84 		"/>
		<polygon class="st7" points="175.8,89.9 177.3,91 181.6,85.3 185.9,91 187.4,89.9 183.5,84 189.4,81.5 188.8,79.8 182.8,81.8 
			182.5,75 180.7,75 180.4,81.8 174.4,79.8 173.8,81.5 179.7,84 		"/>
		<polygon class="st7" points="442,81.8 441.7,75 439.9,75 439.6,81.8 433.6,79.8 433,81.5 438.8,84 435,89.9 436.5,91 440.8,85.3 
			445.1,91 446.6,89.9 442.7,84 448.6,81.5 448,79.8 		"/>
		<polygon class="st7" points="528.4,81.8 528.1,75 526.3,75 526,81.8 520,79.8 519.4,81.5 525.2,84 521.4,89.9 522.9,91 
			527.2,85.3 531.5,91 533,89.9 529.1,84 535,81.5 534.4,79.8 		"/>
		<polygon class="st7" points="614.8,81.8 614.5,75 612.7,75 612.4,81.8 606.4,79.8 605.8,81.5 611.6,84 607.8,89.9 609.3,91 
			613.6,85.3 617.9,91 619.4,89.9 615.5,84 621.4,81.5 620.8,79.8 		"/>
		<polygon class="st7" points="46.2,121.9 47.7,123 52,117.3 56.3,123 57.8,121.9 53.9,116 59.8,113.5 59.2,111.8 53.2,113.8 
			52.9,107 51.1,107 50.8,113.8 44.8,111.8 44.2,113.5 50.1,116 		"/>
		<polygon class="st7" points="132.6,121.9 134.1,123 138.4,117.3 142.7,123 144.2,121.9 140.3,116 146.2,113.5 145.6,111.8 
			139.6,113.8 139.3,107 137.5,107 137.2,113.8 131.2,111.8 130.6,113.5 136.5,116 		"/>
		<polygon class="st7" points="485.2,113.8 484.9,107 483.1,107 482.8,113.8 476.8,111.8 476.2,113.5 482,116 478.2,121.9 
			479.7,123 484,117.3 488.3,123 489.8,121.9 485.9,116 491.8,113.5 491.2,111.8 		"/>
		<polygon class="st7" points="571.6,113.8 571.3,107 569.5,107 569.2,113.8 563.2,111.8 562.6,113.5 568.4,116 564.6,121.9 
			566.1,123 570.4,117.3 574.7,123 576.2,121.9 572.3,116 578.2,113.5 577.6,111.8 		"/>
		<polygon points="15.4,157.4 3.6,188.8 6.2,188.8 18,157.4 		"/>
		<polygon points="39.6,188.8 27.8,157.4 25.2,157.4 37,188.8 		"/>
		<polygon points="15.4,189.4 3.6,220.8 6.2,220.8 18,189.4 		"/>
		<polygon points="39.6,220.8 27.8,189.4 25.2,189.4 37,220.8 		"/>
		<polygon points="58.6,189.4 46.8,220.8 49.4,220.8 61.2,189.4 		"/>
		<polygon points="82.8,220.8 71,189.4 68.4,189.4 80.2,220.8 		"/>
		<polygon points="101.8,189.4 90,220.8 92.6,220.8 104.4,189.4 		"/>
		<polygon points="126,220.8 114.2,189.4 111.6,189.4 123.4,220.8 		"/>
		<polygon points="15.4,221.4 3.6,252.8 6.2,252.8 18,221.4 		"/>
		<polygon points="39.6,252.8 27.8,221.4 25.2,221.4 37,252.8 		"/>
		<polygon points="58.6,221.4 46.8,252.8 49.4,252.8 61.2,221.4 		"/>
		<polygon points="82.8,252.8 71,221.4 68.4,221.4 80.2,252.8 		"/>
		<polygon points="101.8,221.4 90,252.8 92.6,252.8 104.4,221.4 		"/>
		<polygon points="126,252.8 114.2,221.4 111.6,221.4 123.4,252.8 		"/>
		<polygon points="145,221.4 133.2,252.8 135.8,252.8 147.6,221.4 		"/>
		<polygon points="169.2,252.8 157.4,221.4 154.8,221.4 166.6,252.8 		"/>
		<polygon points="6.2,284.8 18,253.4 15.4,253.4 3.6,284.8 		"/>
		<polygon points="39.6,284.8 27.8,253.4 25.2,253.4 37,284.8 		"/>
		<polygon points="49.4,284.8 61.2,253.4 58.6,253.4 46.8,284.8 		"/>
		<polygon points="82.8,284.8 71,253.4 68.4,253.4 80.2,284.8 		"/>
		<polygon points="92.6,284.8 104.4,253.4 101.8,253.4 90,284.8 		"/>
		<polygon points="126,284.8 114.2,253.4 111.6,253.4 123.4,284.8 		"/>
		<polygon points="135.8,284.8 147.6,253.4 145,253.4 133.2,284.8 		"/>
		<polygon points="169.2,284.8 157.4,253.4 154.8,253.4 166.6,284.8 		"/>
		<path d="M443.6,299.5c-2.1,0-3.6-3-6.4-3c-1.8,0-3.6,1.1-4.9,4.5l1.9,0.8c0.8-2.5,1.8-3.1,2.9-3.1c2.1,0,3.6,3,6.4,3
			c1.8,0,3.6-1.1,4.9-4.5l-1.9-0.9C445.7,298.9,444.8,299.5,443.6,299.5z"/>
		<path d="M465.2,299.5c-2.1,0-3.6-3-6.4-3c-1.8,0-3.6,1.1-4.9,4.5l1.9,0.8c0.8-2.5,1.8-3.1,2.9-3.1c2.1,0,3.6,3,6.4,3
			c1.8,0,3.6-1.1,4.9-4.5l-1.9-0.9C467.3,298.9,466.4,299.5,465.2,299.5z"/>
		<path d="M486.8,299.5c-2.1,0-3.6-3-6.4-3c-1.8,0-3.6,1.1-4.9,4.5l1.9,0.8c0.8-2.5,1.8-3.1,2.9-3.1c2.1,0,3.6,3,6.4,3
			c1.8,0,3.6-1.1,4.9-4.5l-1.9-0.9C488.9,298.9,488,299.5,486.8,299.5z"/>
		<path d="M508.4,299.5c-2.1,0-3.6-3-6.4-3c-1.8,0-3.6,1.1-4.9,4.5l1.9,0.8c0.8-2.5,1.8-3.1,2.9-3.1c2.1,0,3.6,3,6.4,3
			c1.8,0,3.6-1.1,4.9-4.5l-1.9-0.9C510.5,298.9,509.6,299.5,508.4,299.5z"/>
		<path d="M530,299.5c-2.1,0-3.6-3-6.4-3c-1.8,0-3.6,1.1-4.9,4.5l1.9,0.8c0.8-2.5,1.8-3.1,2.9-3.1c2.1,0,3.6,3,6.4,3
			c1.8,0,3.6-1.1,4.9-4.5l-1.9-0.9C532.1,298.9,531.2,299.5,530,299.5z"/>
		<path d="M551.6,299.5c-2.1,0-3.6-3-6.4-3c-1.8,0-3.6,1.1-4.9,4.5l1.9,0.8c0.8-2.5,1.8-3.1,2.9-3.1c2.1,0,3.6,3,6.4,3
			c1.8,0,3.6-1.1,4.9-4.5l-1.9-0.9C553.7,298.9,552.8,299.5,551.6,299.5z"/>
		<path d="M573.2,299.5c-2.1,0-3.6-3-6.4-3c-1.8,0-3.6,1.1-4.9,4.5l1.9,0.8c0.8-2.5,1.8-3.1,2.9-3.1c2.1,0,3.6,3,6.4,3
			c1.8,0,3.6-1.1,4.9-4.5l-1.9-0.9C575.3,298.9,574.4,299.5,573.2,299.5z"/>
		<path d="M594.8,299.5c-2.1,0-3.6-3-6.4-3c-1.8,0-3.6,1.1-4.9,4.5l1.9,0.8c0.8-2.5,1.8-3.1,2.9-3.1c2.1,0,3.6,3,6.4,3
			c1.8,0,3.6-1.1,4.9-4.5l-1.9-0.9C596.9,298.9,596,299.5,594.8,299.5z"/>
		<path d="M616.4,299.5c-2.1,0-3.6-3-6.4-3c-1.8,0-3.6,1.1-4.9,4.5l1.9,0.8c0.8-2.5,1.8-3.1,2.9-3.1c2.1,0,3.6,3,6.4,3
			c1.8,0,3.6-1.1,4.9-4.5l-1.9-0.9C618.5,298.9,617.6,299.5,616.4,299.5z"/>
		<path d="M14,299.5c-2.1,0-3.6-3-6.4-3c-1.8,0-3.6,1.1-4.9,4.5l1.9,0.8c0.8-2.5,1.8-3.1,2.9-3.1c2.1,0,3.6,3,6.4,3
			c1.8,0,3.6-1.1,4.9-4.5l-1.9-0.9C16.1,298.9,15.2,299.5,14,299.5z"/>
		<path d="M35.6,299.5c-2.1,0-3.6-3-6.4-3c-1.8,0-3.6,1.1-4.9,4.5l1.9,0.8c0.8-2.5,1.8-3.1,2.9-3.1c2.1,0,3.6,3,6.4,3
			c1.8,0,3.6-1.1,4.9-4.5l-1.9-0.9C37.7,298.9,36.8,299.5,35.6,299.5z"/>
		<path d="M57.2,299.5c-2.1,0-3.6-3-6.4-3c-1.8,0-3.6,1.1-4.9,4.5l1.9,0.8c0.8-2.5,1.8-3.1,2.9-3.1c2.1,0,3.6,3,6.4,3
			c1.8,0,3.6-1.1,4.9-4.5l-1.9-0.9C59.3,298.9,58.4,299.5,57.2,299.5z"/>
		<path d="M78.8,299.5c-2.1,0-3.6-3-6.4-3c-1.8,0-3.6,1.1-4.9,4.5l1.9,0.8c0.8-2.5,1.8-3.1,2.9-3.1c2.1,0,3.6,3,6.4,3
			c1.8,0,3.6-1.1,4.9-4.5l-1.9-0.9C80.9,298.9,80,299.5,78.8,299.5z"/>
		<path d="M100.4,299.5c-2.1,0-3.6-3-6.4-3c-1.8,0-3.6,1.1-4.9,4.5l1.9,0.8c0.8-2.5,1.8-3.1,2.9-3.1c2.1,0,3.6,3,6.4,3
			c1.8,0,3.6-1.1,4.9-4.5l-1.9-0.9C102.5,298.9,101.6,299.5,100.4,299.5z"/>
		<path d="M122,299.5c-2.1,0-3.6-3-6.4-3c-1.8,0-3.6,1.1-4.9,4.5l1.9,0.8c0.8-2.5,1.8-3.1,2.9-3.1c2.1,0,3.6,3,6.4,3
			c1.8,0,3.6-1.1,4.9-4.5l-1.9-0.9C124.1,298.9,123.2,299.5,122,299.5z"/>
		<path d="M143.6,299.5c-2.1,0-3.6-3-6.4-3c-1.8,0-3.6,1.1-4.9,4.5l1.9,0.8c0.8-2.5,1.8-3.1,2.9-3.1c2.1,0,3.6,3,6.4,3
			c1.8,0,3.6-1.1,4.9-4.5l-1.9-0.9C145.7,298.9,144.8,299.5,143.6,299.5z"/>
		<path d="M165.2,299.5c-2.1,0-3.6-3-6.4-3c-1.8,0-3.6,1.1-4.9,4.5l1.9,0.8c0.8-2.5,1.8-3.1,2.9-3.1c2.1,0,3.6,3,6.4,3
			c1.8,0,3.6-1.1,4.9-4.5l-1.9-0.9C167.3,298.9,166.4,299.5,165.2,299.5z"/>
		<path d="M186.8,299.5c-2.1,0-3.6-3-6.4-3c-1.8,0-3.6,1.1-4.9,4.5l1.9,0.8c0.8-2.5,1.8-3.1,2.9-3.1c2.1,0,3.6,3,6.4,3
			c1.8,0,3.6-1.1,4.9-4.5l-1.9-0.9C188.9,298.9,188,299.5,186.8,299.5z"/>
		<path class="st7" d="M408,175h-29c8.3-3.6,14-11.9,14-21.5c0-13-10.5-23.5-23.5-23.5c-4,0-7.5,0.4-10.6,1.2
			c-2.3-0.8-4.8-1.2-7.4-1.2c-21.4,0-28.1,12.2-34.6,24c-1.6,2.9-3.2,5.7-4.9,8.3c-1.8-2.6-3.3-5.4-4.9-8.3c-0.5-1-1.1-2-1.6-3
			c0,0,0,0,0,0c-3-7.8-2.3-16.4,2.1-23.6c3.4-5.7,8.7-9.7,13.5-10.3c4.6-0.5,8.2,0,11.1,1.8l1.4,1c0.4,0.3,1,0.2,1.4-0.2
			s0.3-1-0.2-1.4c-0.5-0.4-1-0.7-1.5-1.1l-13.2-9.4c-0.1-0.1-0.2-0.1-0.2-0.1c-2.7-1-5.9-1.3-9.7-0.8c-4.8,0.6-10,4.1-13.7,9.6
			c-3.6,5.3-5.5,11.6-5.3,18c-4.7-2.8-10.6-4.5-18.7-4.5c-2.6,0-5.1,0.4-7.4,1.2c-3.1-0.8-6.6-1.2-10.6-1.2
			c-13,0-23.5,10.5-23.5,23.5c0,9.6,5.8,17.9,14,21.5h-1h-28c-0.6,0-1,0.4-1,1v28v24v76c0,0.6,0.4,1,1,1h140h24h28c0.6,0,1-0.4,1-1
			v-28v-24v-76C409,175.4,408.6,175,408,175z M369.5,132c11.9,0,21.5,9.6,21.5,21.5s-9.6,21.5-21.5,21.5H361
			c8.3-3.6,14-11.9,14-21.5c0-9.1-5.2-17-12.8-20.9C364.4,132.2,366.8,132,369.5,132z M373,153.5c0,11.9-9.6,21.5-21.5,21.5h-16
			c-5.1,0-9.1-0.9-12.5-2.5c6.3-4.2,10-11,13.6-17.5c4.9-9,10-18.3,22.2-21.6C367.1,136.3,373,144.2,373,153.5z M318.6,155
			c6.2-11.3,12.6-23,32.9-23c1.3,0,2.5,0.1,3.8,0.4c-10.7,4.1-15.6,13-20.4,21.7c-3.8,6.9-7.4,13.5-13.9,17.4
			c-3.2-1.9-5.6-4.4-7.8-7.3C315.2,161.2,317,158,318.6,155z M310.4,108.9c3.4-0.4,6.3-0.2,8.7,0.7l7.6,5.5c-1.8-0.2-3.8-0.2-5.9,0
			c-5.4,0.6-11.2,4.9-15,11.2c-3.5,5.8-4.8,12.4-4,18.8c-2.3-3.5-5.1-6.7-8.6-9.3C292.1,122.2,301.6,110,310.4,108.9z M272.5,132
			c20.3,0,26.7,11.7,32.9,23c1.8,3.3,3.6,6.6,5.8,9.6c0,0,0,0,0,0.1c2.5,3.4,5.4,6.5,9.2,8.7c0.1,0,0.1,0.1,0.2,0.1
			c1,0.6,2.1,1.1,3.3,1.5h-6.3c-16.9,0-22.5-10.2-28.4-21c-4.8-8.7-9.6-17.6-20.4-21.7C270,132.1,271.2,132,272.5,132z M324,177
			c12,0,26.3,11.5,27,26h-18c-0.5-11.9-9.6-21.9-19.6-26H324z M265.1,133.3c12.2,3.4,17.3,12.6,22.2,21.6c4.4,8.1,9,16.3,18.5,20
			h-33.3c-11.9,0-21.5-9.6-21.5-21.5C251,144.2,256.9,136.3,265.1,133.3z M233,153.5c0-11.9,9.6-21.5,21.5-21.5
			c2.7,0,5.1,0.2,7.3,0.6c-7.6,3.9-12.8,11.8-12.8,20.9c0,9.6,5.8,17.9,14,21.5h-8.5C242.6,175,233,165.4,233,153.5z M217,177h24.6
			L217,201.6V177z M217,204.4l27.4-27.4h21.2L217,225.6V204.4z M407,303h-24.6l24.6-24.6V303z M407,275.6L379.6,303h-21.2l48.6-48.6
			V275.6z M407,251.6L355.6,303H217v-74.6l51.4-51.4H304c12.2,0,27,12,27,27c0,0.6,0.4,1,1,1h20c0.6,0,1-0.4,1-1
			c0-12.3-9.3-22.8-19.6-27H407V251.6z"/>
	</g>
</g>
</svg>
