<?xml version="1.0" encoding="utf-8"?>
<!-- Generator: Adobe Illustrator 18.0.0, SVG Export Plug-In . SVG Version: 6.00 Build 0)  -->
<!DOCTYPE svg PUBLIC "-//W3C//DTD SVG 1.1//EN" "http://www.w3.org/Graphics/SVG/1.1/DTD/svg11.dtd">
<svg version="1.1" id="Layer_1" xmlns="http://www.w3.org/2000/svg" xmlns:xlink="http://www.w3.org/1999/xlink" x="0px" y="0px"
	 viewBox="30.8 294 537.2 213.7" enable-background="new 30.8 294 537.2 213.7" xml:space="preserve">
<path fill="#5ad2ff" d="M564.2,399.2c4.2-9.9-0.5-8.9-5.5-8.9c-2.7,0-18.1,2.8-22.1,4.1s-6.5,2.8-9,7.9c-3,6.2-17.7,41.9-23.6,54.7
	c-5.8,12.7-14.4,21.5-21.5,16.7c-12.7-8.7,22.3-78.4,25.2-85.4c18.1,2.2,29.4-1.5,29.4-1.5c19-4.8,29.9-14.1,30.7-27.1
	c0.5-9-6.8-17.1-16.4-17c-7.4,0-12.5,3-15.7,10.3c-5.7,16.9,11,21.2,11,21.2c-13.3,5.8-24.2,4.9-34.5,2.9
	c5.6-14.4,10.4-28.2,12-40.1c3.1-23.7-15.6-35.2-21.3-36.9c-3.8-1.1-8.4,0.1-7.5,5.3c0.4,2.1,2,5.1,3.3,9.1
	c4.7,17-2.1,32.6-6.8,43.9c-1,2.3-2.6,5.8-4.6,10.2c-8.4-4.2-17.7-10.9-24.8-16.4c0.2-0.6,0.3-1.1,0.5-1.7
	c8.5-28.7-4.5-42.7-9.7-48.2c-5.2-5.4-11.2-8.4-13.8-4.4c-2.7,4.1,2,8.4,3.5,18.4s-2.7,19.6-2.7,19.6c-4-2.9-32.6-25.7-57.6-33.3
	c-25-7.6-36.7,6.3-37.6,21.3s5.5,32.2,23.8,41c19.4,9.2,30.8,4.9,36.2-6.3c5.5-11.7-11.3-26.2-23.6-15.7c-9.4,9.3-0.9,18.9-0.9,18.9
	c-21.6-6.2-25.8-27.2-19.4-35.2c6.6-8.3,20.9-4.3,33.5,3c11.5,6.6,36.4,24.7,36.4,24.7c-1.8,4.6-29.4,50.7-47,82
	c-15.4,27.2-22,35.5-27.2,34.5c-6.1-1.1-2.3-12.9,2.6-23c7.4-15.2,32.2-62.1,33.6-64.7c4.1-7.4-2.5-5-4.2-4.9
	c-1.7,0.2-21.3,2.6-26.8,4.1c-5.5,1.5-7.3,2.8-11.4,10.8c-4.1,7.9-8.9,15.1-8.9,15.1c-15.4,18-19.7,5.7-22.1-0.3
	c-2.4-6-8-22.8-30.7-20.2c-22.8,2.6-35.8,17.9-35.8,17.9c2.3-6.3,5.4-15,5.4-15c59.3-25.7,66.1-69.5,58.9-82.6s-24.7-18.5-41.7-7.2
	c-17.2,11-25,28.7-37.2,68.5c-1.3,4.3-2.6,8.5-3.9,12.5c-12,3.4-21.9,5.1-31,5.4c13.9-27.6,31.6-49.6,34.2-52.7
	c1.8-2,9.9-14.6-18.2-10.1s-53.1,16.3-67.7,27.4c-6.4,4.9-13.5,11.1-20.3,17.7c-39.9-13-73.7-17-82.3,6.2
	c-6.4,17.2,9.9,28.8,21.2,29.5c9.2,0.6,14.3-5.3,14.1-12.6c-0.2-7.7-9.5-13.2-17.2-8.1c-5.6,4.4-2.2,12.1-2.2,12.1
	c-4.7-2.3-9.3-8.5-5.1-15.8l0,0c6.4-8.8,23.9-2.4,54.6,6.5c-2.2,2.6-4.2,5.1-5.9,7.4c-9.8,13.3-40.4,60-49.5,72.7
	c-9.2,12.7-20.2,4.4-20.2,4.4c-3.5-3.1-7.7-4.1-8.8,3c-1,6.5,6.7,30.6,33.6,25.5c34-6.5,57.1-55.7,64.7-66.7
	c5.5-7.9,12.9-21.4,22.7-36c4.3,1.1,8.5,2,12.6,2.8c-6,12-11.7,26-14.4,38.2c-6.7,30.6,4.2,55.4,34.5,52.1
	c25.1-2.7,34.8-28.2,34.8-28.2c-0.8,17.2,25.9,39.1,59.8,18.2c33.9-21,42-55.2,42-55.2c4.4,5.2,12.3,0.1,12.3,0.1
	c-18,38.9-19.3,62.6,7.5,62.6c23.9,0,37.1-25.5,37.1-25.5c2.6,36.5,33.6,32.6,48.8,21c14.7-11.3,22.8-27.1,22.6-26
	c-3.8,27.7,6.1,42.9,29.4,38.6c15.8-2.9,26.9-17.3,26.9-17.3c0.6,8.4,2.4,24.7,20.9,28.5c17,3.6,28.9-13,31.2-19.3s1-6.2-11.9-0.4
	c-12.8,5.8-20.1-3-9-28.2C543.6,445.2,560.2,408.4,564.2,399.2z M300.8,317.1c6.8,4,1.5,15.3-8,28.3c-12.5,17.2-29,25.4-29,25.4
	C274.6,328.9,292.4,312.3,300.8,317.1z M164.3,380.4c16.6-20.8,28.5-28.4,31.6-28.1c3.3,0.4-9.8,14.8-18.8,26.7
	c-0.9,1.2-1.9,2.6-2.9,4.2C171.1,382.3,167,381.2,164.3,380.4z M209.5,446.9c-9.9,13.5-25.6,14.3-22-12.7c1.5-10.3,5-21,9.1-31.1
	c12.8,0,23.8-1.5,32.6-3.4C222.3,422,216.6,437.3,209.5,446.9z M277.8,439c-8.2,14.6-19.6,30.9-28.8,27.5
	c-8.6-3.2-2.6-17.4-2.6-17.4s7.2-17.5,17.5-29.3c10.1-11.8,15.8-12,20.2-9C288.1,413.6,286,424.4,277.8,439z M452.3,435.7
	c-14.8,25.1-28.2,37.5-38.2,31.8c-9.8-5.6,1.8-26.8,7.5-36.7c4.4-7.9,26.9-48.1,33.9-61c8,4.4,16.9,8.7,25.4,12
	C472.5,398.7,461.4,420.2,452.3,435.7z"/>
</svg>
